<svg viewBox="0 0 36 36" fill="none" xmlns="http://www.w3.org/2000/svg">
  <path d="M7.11111 32H28.8889C30.6071 32 32 30.6071 32 28.8889V7.11111C32 5.39289 30.6071 4 28.8889 4H7.11111C5.39289 4 4 5.39289 4 7.11111V28.8889C4 30.6071 5.39289 32 7.11111 32ZM7.11111 32L24.2222 14.8889L32 22.6667M14.8889 12.5556C14.8889 13.8442 13.8442 14.8889 12.5556 14.8889C11.2669 14.8889 10.2222 13.8442 10.2222 12.5556C10.2222 11.2669 11.2669 10.2222 12.5556 10.2222C13.8442 10.2222 14.8889 11.2669 14.8889 12.5556Z" stroke="#D2D2D2" stroke-width="3" stroke-linecap="round" stroke-linejoin="round" />
</svg>
