<svg viewBox="0 0 36 36" fill="none" xmlns="http://www.w3.org/2000/svg">
  <path d="M29.1132 19.4C28.8016 21.8674 27.678 24.1609 25.9195 25.9195C24.1609 27.678 21.8674 28.8016 19.4 29.1132V32H16.6V29.1132C14.1326 28.8016 11.8391 27.678 10.0805 25.9195C8.32199 24.1609 7.19842 21.8674 6.8868 19.4H4V16.6H6.8868C7.19842 14.1326 8.32199 11.8391 10.0805 10.0805C11.8391 8.32199 14.1326 7.19842 16.6 6.8868V4H19.4V6.8868C21.8674 7.19842 24.1609 8.32199 25.9195 10.0805C27.678 11.8391 28.8016 14.1326 29.1132 16.6H32V19.4H29.1132ZM18 26.4C20.2278 26.4 22.3644 25.515 23.9397 23.9397C25.515 22.3644 26.4 20.2278 26.4 18C26.4 15.7722 25.515 13.6356 23.9397 12.0603C22.3644 10.485 20.2278 9.6 18 9.6C15.7722 9.6 13.6356 10.485 12.0603 12.0603C10.485 13.6356 9.6 15.7722 9.6 18C9.6 20.2278 10.485 22.3644 12.0603 23.9397C13.6356 25.515 15.7722 26.4 18 26.4V26.4ZM18 22.2C19.1139 22.2 20.1822 21.7575 20.9698 20.9698C21.7575 20.1822 22.2 19.1139 22.2 18C22.2 16.8861 21.7575 15.8178 20.9698 15.0302C20.1822 14.2425 19.1139 13.8 18 13.8C16.8861 13.8 15.8178 14.2425 15.0302 15.0302C14.2425 15.8178 13.8 16.8861 13.8 18C13.8 19.1139 14.2425 20.1822 15.0302 20.9698C15.8178 21.7575 16.8861 22.2 18 22.2V22.2Z" fill="#B4A5C3" />
</svg>
