<svg viewBox="0 0 36 36" fill="none" xmlns="http://www.w3.org/2000/svg">
  <path d="M27.25 16.25H25.5V11C25.5 7.15 22.35 4 18.5 4C14.65 4 11.5 7.15 11.5 11V16.25H9.75C8.875 16.25 8 17.125 8 18V30.25C8 31.125 8.875 32 9.75 32H27.25C28.125 32 29 31.125 29 30.25V18C29 17.125 28.125 16.25 27.25 16.25ZM20.25 28.5H16.75L17.45 24.65C16.575 24.3 15.875 23.25 15.875 22.375C15.875 20.975 17.1 19.75 18.5 19.75C19.9 19.75 21.125 20.975 21.125 22.375C21.125 23.425 20.6 24.3 19.55 24.65L20.25 28.5ZM22 16.25H15V11C15 9.075 16.575 7.5 18.5 7.5C20.425 7.5 22 9.075 22 11V16.25Z" />
</svg>
