<svg viewBox="0 0 16 16" fill="none" xmlns="http://www.w3.org/2000/svg">
  <path fill-rule="evenodd" clip-rule="evenodd" d="M3 0C1.34315 0 0 1.34315 0 3V13C0 14.6569 1.34315 16 3 16H13C14.6569 16 16 14.6569 16 13V3C16 1.34315 14.6569 0 13 0H3ZM8.70713 2.20198C8.31661 1.81145 7.68344 1.81145 7.29292 2.20198L2.20201 7.29288C1.81148 7.68341 1.81148 8.31657 2.20201 8.7071C2.59253 9.09762 3.2257 9.09762 3.61622 8.7071L7.00002 5.3233V13.0909C7.00002 13.6432 7.44774 14.0909 8.00002 14.0909C8.55231 14.0909 9.00002 13.6432 9.00002 13.0909V5.3233L12.3838 8.7071C12.7744 9.09762 13.4075 9.09762 13.798 8.7071C14.1886 8.31657 14.1886 7.68341 13.798 7.29288L8.70713 2.20198Z" fill="#9787A7" />
</svg>
