<svg viewBox="0 0 16 16" fill="none" xmlns="http://www.w3.org/2000/svg">
  <path fill-rule="evenodd" clip-rule="evenodd" d="M13 16C14.6569 16 16 14.6569 16 13L16 3C16 1.34315 14.6569 -1.17422e-07 13 -2.62268e-07L3 -1.1365e-06C1.34315 -1.28134e-06 1.28134e-06 1.34314 1.1365e-06 3L2.62268e-07 13C1.17422e-07 14.6569 1.34315 16 3 16L13 16ZM7.29287 13.798C7.68339 14.1885 8.31656 14.1885 8.70708 13.798L13.798 8.70711C14.1885 8.31659 14.1885 7.68343 13.798 7.2929C13.4075 6.90238 12.7743 6.90238 12.3838 7.2929L8.99998 10.6767L8.99998 2.9091C8.99998 2.35681 8.55226 1.9091 7.99998 1.9091C7.44769 1.9091 6.99998 2.35681 6.99998 2.9091L6.99998 10.6767L3.61617 7.2929C3.22565 6.90238 2.59248 6.90238 2.20196 7.2929C1.81144 7.68342 1.81144 8.31659 2.20196 8.70711L7.29287 13.798Z" fill="#9787A7" />
</svg>
