<svg width="33" height="33" viewBox="0 0 33 33" fill="none" xmlns="http://www.w3.org/2000/svg">
<path d="M32.1381 16.5C32.6141 16.5 33.0023 16.1138 32.9775 15.6384C32.7849 11.9527 31.3607 8.4282 28.92 5.63755C26.2898 2.63013 22.6576 0.67923 18.6979 0.147035C14.7381 -0.385159 10.7197 0.537501 7.38874 2.74373C4.05775 4.94996 1.64043 8.28988 0.585521 12.1435C-0.469384 15.9971 -0.0902039 20.1025 1.65267 23.6977C3.39554 27.2929 6.38371 30.1335 10.0624 31.6924C13.7412 33.2512 17.8605 33.4222 21.6558 32.1738C25.1776 31.0153 28.1983 28.7076 30.2413 25.6339C30.5048 25.2374 30.3674 24.7073 29.9578 24.4649V24.4649C29.5481 24.2224 29.0215 24.3597 28.7556 24.7545C26.9269 27.4697 24.2424 29.5083 21.1172 30.5363C17.7184 31.6543 14.0294 31.5012 10.735 30.1052C7.44057 28.7092 4.76458 26.1653 3.20379 22.9457C1.64299 19.7262 1.30343 16.0496 2.24813 12.5986C3.19282 9.1476 5.35761 6.15661 8.3406 4.18086C11.3236 2.20512 14.9222 1.37885 18.4682 1.85545C22.0143 2.33204 25.267 4.07913 27.6225 6.77237C29.7883 9.24877 31.0603 12.3704 31.2511 15.6385C31.2788 16.1137 31.6621 16.5 32.1381 16.5V16.5Z" fill="#C4C4C4" fill-opacity="0.5"/>
<circle cx="31.68" cy="21.12" r="0.88" fill="#C4C4C4" fill-opacity="0.5"/>
</svg>
