<svg viewBox="0 0 36 36" fill="none" xmlns="http://www.w3.org/2000/svg">
  <path d="M8.98706 13.4774H20.9612V16.4709H8.98706V13.4774Z" fill="#B4A5C3" />
  <path d="M14.9741 26.9483C17.6309 26.9477 20.211 26.0583 22.3038 24.4217L28.8836 31.0015L31 28.8851L24.4202 22.3053C26.0577 20.2123 26.9476 17.6315 26.9483 14.9741C26.9483 8.37189 21.5764 3 14.9741 3C8.37189 3 3 8.37189 3 14.9741C3 21.5764 8.37189 26.9483 14.9741 26.9483ZM14.9741 5.99353C19.9269 5.99353 23.9547 10.0213 23.9547 14.9741C23.9547 19.9269 19.9269 23.9547 14.9741 23.9547C10.0213 23.9547 5.99353 19.9269 5.99353 14.9741C5.99353 10.0213 10.0213 5.99353 14.9741 5.99353Z" fill="#B4A5C3" />
</svg>
