<svg viewBox="0 0 36 36" fill="none" xmlns="http://www.w3.org/2000/svg">
  <path d="M16.4709 9H13.4774V13.5H8.98706V16.5H13.4774V21H16.4709V16.5H20.9612V13.5H16.4709V9Z" fill="#B4A5C3" />
  <path d="M14.9741 3C8.37189 3 3 8.3835 3 15C3 21.6165 8.37189 27 14.9741 27C17.6309 26.9995 20.211 26.1081 22.3038 24.468L28.8836 31.062L31 28.941L24.4202 22.347C26.0577 20.2495 26.9476 17.6632 26.9483 15C26.9483 8.3835 21.5764 3 14.9741 3ZM14.9741 24C10.0213 24 5.99353 19.9635 5.99353 15C5.99353 10.0365 10.0213 6 14.9741 6C19.9269 6 23.9547 10.0365 23.9547 15C23.9547 19.9635 19.9269 24 14.9741 24Z" fill="#B4A5C3" />
</svg>
