<svg width="294" height="78" viewBox="0 0 294 78" fill="none" xmlns="http://www.w3.org/2000/svg">
<path d="M48.5872 9.82298C50.4576 12.998 50.99 16.7859 50.0675 20.3534L39.3478 61.8081C38.1094 66.5973 35.0192 70.6984 30.7571 73.2091C26.4949 75.7199 21.41 76.4347 16.6208 75.1963C11.8316 73.9579 7.73056 70.8677 5.2198 66.6055C2.70904 62.3434 1.99424 57.2584 3.23266 52.4692L11.5702 20.2267C11.8609 19.1023 12.5864 18.1395 13.587 17.5501C14.5876 16.9606 15.7814 16.7928 16.9058 17.0836C18.0301 17.3743 18.9929 18.0998 19.5824 19.1004C20.1718 20.101 20.3396 21.2948 20.0489 22.4191L11.7114 54.6617C11.0544 57.2022 11.4336 59.8996 12.7655 62.1605C14.0973 64.4214 16.2728 66.0606 18.8133 66.7176C21.3538 67.3745 24.0511 66.9953 26.3121 65.6635C28.573 64.3316 30.2122 62.1561 30.8691 59.6157L41.5888 18.1609C41.7577 17.5079 41.7963 16.828 41.7024 16.16C41.6085 15.4921 41.3839 14.8492 41.0416 14.268C40.6992 13.6868 40.2457 13.1788 39.707 12.7729C39.1683 12.3669 38.5549 12.0711 37.9019 11.9022C37.2489 11.7334 36.569 11.6948 35.901 11.7887C35.2331 11.8826 34.5901 12.1071 34.009 12.4495C33.4278 12.7918 32.9197 13.2453 32.5138 13.784C32.1079 14.3227 31.8121 14.9361 31.6432 15.5891L20.9235 57.0439C20.8984 57.1411 20.9129 57.2444 20.9639 57.3309C21.0149 57.4175 21.0982 57.4803 21.1954 57.5054C21.2927 57.5306 21.396 57.516 21.4825 57.4651C21.5691 57.4141 21.6318 57.3308 21.657 57.2335L29.9945 24.991C30.2852 23.8666 31.0107 22.9038 32.0113 22.3144C33.012 21.7249 34.2057 21.5571 35.3301 21.8478C36.4544 22.1386 37.4172 22.8641 38.0067 23.8647C38.5961 24.8653 38.7639 26.0591 38.4732 27.1834L30.1357 59.426C29.529 61.772 28.0153 63.7808 25.9275 65.0107C23.8397 66.2406 21.3489 66.5907 19.0029 65.9841C16.657 65.3775 14.6481 63.8638 13.4182 61.776C12.1883 59.6882 11.8382 57.1973 12.4448 54.8514L23.1645 13.3966C24.087 9.82909 26.389 6.77411 29.5639 4.90379C32.7389 3.03347 36.5268 2.501 40.0944 3.42353C43.662 4.34606 46.7169 6.64801 48.5872 9.82298Z" fill="#BCBCBC" stroke="#131313" stroke-width="4"/>
<mask id="path-2-outside-1_83_6" maskUnits="userSpaceOnUse" x="31.9321" y="14.2017" width="262" height="53" fill="black">
<rect fill="white" x="31.9321" y="14.2017" width="262" height="53"/>
<path d="M50.4157 53.4832C57.472 53.4832 62.1463 44.9887 62.1912 37.8425C62.2362 33.3929 59.3148 29.1232 54.281 29.1232C52.2135 29.1232 50.4607 30.6064 48.9775 32.6289L49.3371 30.3367C49.427 29.8423 45.2471 28.1794 43.674 28.1794C41.7414 28.1794 40.5279 37.9324 40.2582 43.5055C38.3706 51.8202 35.8537 60.3597 37.4267 60.8541C38.2357 61.1687 41.8313 62.2923 42.5055 62.2923C43.0898 62.2923 43.8089 62.2474 44.1235 60.9889C44.3033 59.7754 44.7977 55.0563 45.4718 51.5955C46.4157 52.7191 47.8988 53.4832 50.4157 53.4832ZM48.0786 43.6853C48.2134 42.4268 48.5281 41.1684 48.5281 41.1684C48.7078 41.3481 49.5168 41.6628 49.5618 41.483C50.0562 39.2807 52.2135 32.4941 54.3259 32.4941C55.7641 32.4941 55.3596 35.2357 55.2698 36.3593C55.045 38.6515 53.2922 49.0337 49.8315 49.0337C48.3483 49.0337 47.8089 46.6516 48.0786 43.6853Z"/>
<path d="M77.8737 49.9326C78.0086 51.0112 78.9524 53.4832 83.0424 53.4832C88.211 53.4832 90.638 49.5281 90.638 46.7415C90.638 43.2358 86.4582 43.8201 86.4582 43.8201C86.1885 46.6966 85.6492 49.2584 83.8064 49.2584C82.8177 49.2584 82.548 47.7752 82.6379 46.0224C82.7727 42.6965 83.6716 38.2919 84.975 34.2469C85.2896 33.2132 82.5929 33.1682 81.9637 33.0334C81.9637 33.0334 82.0536 32.6738 82.0536 32.3143C82.0536 30.112 78.6827 28.0895 73.5141 28.0895C66.1432 28.0895 62.0982 36.2245 62.0982 43.9999C62.0982 49.8876 65.9185 53.2135 71.4916 53.2135C74.2782 53.2135 76.4355 51.5056 77.5591 49.9326H77.8737ZM70.0534 45.528C70.323 41.438 72.4804 32.1345 74.9074 32.1345C75.5366 32.1345 75.4917 33.0334 75.4467 33.3929C75.267 34.7862 74.8625 36.0447 74.0085 37.3031C74.413 37.9324 75.5366 38.1571 75.5366 38.1571C75.4018 39.5504 72.9748 48.8539 70.9523 48.8539C70.1433 48.8539 69.8287 47.955 70.0534 45.528Z"/>
<path d="M97.4233 53.4832C104.48 53.4832 109.154 44.9887 109.199 37.8425C109.244 33.3929 106.322 29.1232 101.288 29.1232C99.221 29.1232 97.4682 30.6064 95.985 32.6289L96.3446 30.3367C96.4345 29.8423 92.2546 28.1794 90.6816 28.1794C88.7489 28.1794 87.5354 37.9324 87.2658 43.5055C85.3781 51.8202 82.8612 60.3597 84.4343 60.8541C85.2433 61.1687 88.8388 62.2923 89.513 62.2923C90.0973 62.2923 90.8164 62.2474 91.131 60.9889C91.3108 59.7754 91.8052 55.0563 92.4793 51.5955C93.4232 52.7191 94.9064 53.4832 97.4233 53.4832ZM95.0861 43.6853C95.221 42.4268 95.5356 41.1684 95.5356 41.1684C95.7154 41.3481 96.5244 41.6628 96.5693 41.483C97.0637 39.2807 99.221 32.4941 101.333 32.4941C102.772 32.4941 102.367 35.2357 102.277 36.3593C102.053 38.6515 100.3 49.0337 96.839 49.0337C95.3558 49.0337 94.8165 46.6516 95.0861 43.6853Z"/>
<path d="M108.297 46.7415C108.297 52.3596 113.87 55.5506 119.128 55.5506C126.814 55.5506 130.23 49.8427 130.23 46.2022C130.23 44.3594 128.522 43.5504 126.454 43.5504C125.735 43.5504 125.241 43.91 125.241 43.91C124.791 46.4718 122.23 51.2809 118.005 51.2809C116.342 51.2809 115.353 50.3371 115.353 48.1348C115.353 45.0336 116.297 42.7864 116.342 42.6965C116.432 42.8763 117.6 44.8089 120.207 44.8089C123.128 44.8089 126.589 40.3144 126.589 34.5615C126.589 29.6176 121.78 27.685 119.173 27.685C112.387 27.685 108.297 38.5616 108.297 46.7415ZM116.926 39.7301C117.376 37.438 118.544 34.4716 119.533 32.3592C119.803 31.7749 119.982 31.6401 120.162 31.6401C120.387 31.6401 120.656 31.8199 120.612 33.4828C120.567 36.5391 119.398 40.674 117.915 40.674C117.106 40.674 116.926 39.7301 116.926 39.7301Z"/>
<path d="M135.635 37.438C135.905 35.1458 136.579 32.2693 136.849 30.2019C136.849 30.2019 133.927 28.7187 132.13 28.7187C129.793 28.7187 129.343 33.5727 128.984 36.9436C127.95 45.2134 127.41 49.3932 127.41 50.6966C127.41 51.6854 133.882 53.5281 135.5 52.8989C135.815 47.5056 138.107 40.674 139.321 38.247C139.366 40.3594 140.04 43.4605 144.13 43.4605C147.68 43.4605 150.018 40.0897 150.018 37.3481C150.018 35.2357 147.591 35.2806 147.321 35.2806C147.141 35.2806 145.973 39.1459 143.68 39.1459C143.006 39.1459 142.647 38.5166 142.692 37.9773C142.871 35.1458 145.164 32.1345 145.253 30.6513C145.298 29.8873 145.029 28.8535 142.826 28.4041C140.444 27.9097 138.961 28.4041 138.512 29.7075C137.927 31.5053 137.029 35.0559 135.905 37.5728L135.635 37.438Z"/>
<path d="M149.927 43.1459C154.826 42.4268 159.365 42.0223 165.433 41.9324C167.5 41.9324 164.354 35.9098 163.455 35.8649C160.579 35.7301 151.769 36.4042 146.781 37.6177C145.567 37.9324 148.174 43.4156 149.927 43.1459Z"/>
<path d="M168.208 46.7415C168.208 52.3596 173.781 55.5506 179.04 55.5506C186.725 55.5506 190.141 49.8427 190.141 46.2022C190.141 44.3594 188.433 43.5504 186.366 43.5504C185.647 43.5504 185.152 43.91 185.152 43.91C184.703 46.4718 182.141 51.2809 177.916 51.2809C176.253 51.2809 175.265 50.3371 175.265 48.1348C175.265 45.0336 176.208 42.7864 176.253 42.6965C176.343 42.8763 177.512 44.8089 180.119 44.8089C183.04 44.8089 186.501 40.3144 186.501 34.5615C186.501 29.6176 181.692 27.685 179.085 27.685C172.298 27.685 168.208 38.5616 168.208 46.7415ZM176.838 39.7301C177.287 37.438 178.456 34.4716 179.444 32.3592C179.714 31.7749 179.894 31.6401 180.074 31.6401C180.298 31.6401 180.568 31.8199 180.523 33.4828C180.478 36.5391 179.31 40.674 177.826 40.674C177.017 40.674 176.838 39.7301 176.838 39.7301Z"/>
<path d="M202.783 49.2584C202.783 51.0562 204.311 53.2135 207.232 53.2135C212.491 53.2135 216.536 48.7191 216.536 45.5729C216.536 42.0673 212.806 42.9662 212.806 42.9662C212.536 45.3033 211.367 49.0337 209.57 49.0337C208.806 49.0337 208.401 48.4494 208.401 47.146C208.401 43.1909 212.221 27.0558 213.12 21.0781C213.435 19.1006 208.581 18.2915 206.918 18.2915C205.929 18.2915 205.39 19.7747 205.03 21.8422C204.716 23.5501 204.041 27.8198 203.457 30.6963C203.457 30.6963 201.524 28.7187 198.378 28.7187C190.738 28.7187 187.412 39.011 187.412 44.9437C187.412 49.2135 190.109 54.2473 195.996 54.2473C199.592 54.2473 201.704 51.1011 202.603 49.2584H202.783ZM194.603 47.1011C194.963 41.6178 197.704 32.6289 200.356 32.6289C200.895 32.6289 200.985 33.348 200.895 33.9772C200.85 35.2357 200.131 36.8087 199.727 37.8425C200.041 38.4267 200.401 38.5616 200.76 38.6065C200.671 40.3594 197.21 49.6629 195.277 49.6629C194.558 49.6629 194.603 47.9101 194.603 47.1011Z"/>
<path d="M221.408 27.5951C226.532 27.5951 228.24 24.404 228.24 22.6961C228.24 21.2579 227.026 20.6736 225.813 20.2242C226.397 18.5163 225.139 18.2017 223.071 18.2017C219.026 18.2017 217.948 22.6961 217.948 24.2242C217.948 26.6063 220.06 27.5951 221.408 27.5951ZM212.509 47.3707C212.509 51.7753 215.251 53.8428 219.566 53.8428C224.914 53.8428 229.588 49.7078 229.588 46.5168C229.588 43.4156 225.633 43.5504 225.633 43.5504C225.408 45.0785 224.195 49.3483 221.903 49.3483C221.363 49.3483 220.869 48.6292 220.959 47.1909C221.139 44.1797 223.341 36.584 224.375 33.1682C225.139 30.9659 219.431 29.7524 218.082 29.7524C217.633 29.7524 217.049 29.8423 216.869 30.3367C215.476 33.5278 212.509 43.5055 212.509 47.3707Z"/>
<path d="M227.628 35.3705C228.078 35.3256 228.752 35.1907 229.561 35.1008C228.212 39.2807 227.224 43.5055 227.224 45.7977C227.224 50.5618 230.55 53.618 235.224 53.618C240.797 53.618 246.775 50.6966 246.775 46.0224C246.775 42.0673 242.864 42.6515 242.864 42.6515C242.55 44.719 240.168 48.9438 236.662 48.9438C235.898 48.9438 235.314 48.3595 235.314 47.0561C235.314 44.1347 236.662 39.011 238.1 34.1121C241.336 33.7974 244.617 33.5727 247.179 33.5278C248.078 33.5278 248.213 33.1682 248.213 32.8536C248.213 32.5839 247.179 30.2468 246.82 30.112C245.876 29.7524 244.932 29.303 244.482 28.6738C244.123 28.0895 242.775 28.2693 241.291 28.3591L239.853 28.449L240.752 25.7973C240.887 25.3479 236.033 23.1006 234.864 23.64C234.1 23.9995 232.887 26.3366 231.628 29.3929C228.572 29.8423 225.875 30.3367 225.156 30.7412C224.257 31.2805 225.83 35.6402 227.628 35.3705Z"/>
<path d="M244.724 42.5616C244.5 47.5954 247.241 53.8877 254.702 53.8877C263.826 53.8877 266.522 43.0111 266.837 37.9773C267.017 33.2581 265.848 28.8086 258.343 28.8086C256.859 28.8086 255.871 29.3929 255.871 29.3929C255.646 28.9434 254.972 28.5389 254.073 28.2243C249.533 29.0783 245.084 36.629 244.724 42.5616ZM252.05 43.91C252.14 42.4718 252.5 41.3481 252.5 41.3481C252.68 41.5729 253.578 41.8425 253.623 41.7077C254.118 39.4605 256.41 32.5839 258.702 32.5839C260.275 32.5839 259.871 35.3256 259.781 36.5391C259.556 38.8312 257.668 49.3932 254.028 49.3932C252.365 49.3932 251.736 46.9662 252.05 43.91Z"/>
<path d="M275.297 37.438C275.567 35.1458 276.241 32.2693 276.511 30.2019C276.511 30.2019 273.589 28.7187 271.792 28.7187C269.454 28.7187 269.005 33.5727 268.645 36.9436C267.612 45.2134 267.072 49.3932 267.072 50.6966C267.072 51.6854 273.544 53.5281 275.162 52.8989C275.477 47.5056 277.769 40.674 278.983 38.247C279.028 40.3594 279.702 43.4605 283.792 43.4605C287.342 43.4605 289.68 40.0897 289.68 37.3481C289.68 35.2357 287.253 35.2806 286.983 35.2806C286.803 35.2806 285.634 39.1459 283.342 39.1459C282.668 39.1459 282.309 38.5166 282.354 37.9773C282.533 35.1458 284.825 32.1345 284.915 30.6513C284.96 29.8873 284.691 28.8535 282.488 28.4041C280.106 27.9097 278.623 28.4041 278.174 29.7075C277.589 31.5053 276.691 35.0559 275.567 37.5728L275.297 37.438Z"/>
</mask>
<path d="M50.4157 53.4832C57.472 53.4832 62.1463 44.9887 62.1912 37.8425C62.2362 33.3929 59.3148 29.1232 54.281 29.1232C52.2135 29.1232 50.4607 30.6064 48.9775 32.6289L49.3371 30.3367C49.427 29.8423 45.2471 28.1794 43.674 28.1794C41.7414 28.1794 40.5279 37.9324 40.2582 43.5055C38.3706 51.8202 35.8537 60.3597 37.4267 60.8541C38.2357 61.1687 41.8313 62.2923 42.5055 62.2923C43.0898 62.2923 43.8089 62.2474 44.1235 60.9889C44.3033 59.7754 44.7977 55.0563 45.4718 51.5955C46.4157 52.7191 47.8988 53.4832 50.4157 53.4832ZM48.0786 43.6853C48.2134 42.4268 48.5281 41.1684 48.5281 41.1684C48.7078 41.3481 49.5168 41.6628 49.5618 41.483C50.0562 39.2807 52.2135 32.4941 54.3259 32.4941C55.7641 32.4941 55.3596 35.2357 55.2698 36.3593C55.045 38.6515 53.2922 49.0337 49.8315 49.0337C48.3483 49.0337 47.8089 46.6516 48.0786 43.6853Z" fill="white"/>
<path d="M77.8737 49.9326C78.0086 51.0112 78.9524 53.4832 83.0424 53.4832C88.211 53.4832 90.638 49.5281 90.638 46.7415C90.638 43.2358 86.4582 43.8201 86.4582 43.8201C86.1885 46.6966 85.6492 49.2584 83.8064 49.2584C82.8177 49.2584 82.548 47.7752 82.6379 46.0224C82.7727 42.6965 83.6716 38.2919 84.975 34.2469C85.2896 33.2132 82.5929 33.1682 81.9637 33.0334C81.9637 33.0334 82.0536 32.6738 82.0536 32.3143C82.0536 30.112 78.6827 28.0895 73.5141 28.0895C66.1432 28.0895 62.0982 36.2245 62.0982 43.9999C62.0982 49.8876 65.9185 53.2135 71.4916 53.2135C74.2782 53.2135 76.4355 51.5056 77.5591 49.9326H77.8737ZM70.0534 45.528C70.323 41.438 72.4804 32.1345 74.9074 32.1345C75.5366 32.1345 75.4917 33.0334 75.4467 33.3929C75.267 34.7862 74.8625 36.0447 74.0085 37.3031C74.413 37.9324 75.5366 38.1571 75.5366 38.1571C75.4018 39.5504 72.9748 48.8539 70.9523 48.8539C70.1433 48.8539 69.8287 47.955 70.0534 45.528Z" fill="white"/>
<path d="M97.4233 53.4832C104.48 53.4832 109.154 44.9887 109.199 37.8425C109.244 33.3929 106.322 29.1232 101.288 29.1232C99.221 29.1232 97.4682 30.6064 95.985 32.6289L96.3446 30.3367C96.4345 29.8423 92.2546 28.1794 90.6816 28.1794C88.7489 28.1794 87.5354 37.9324 87.2658 43.5055C85.3781 51.8202 82.8612 60.3597 84.4343 60.8541C85.2433 61.1687 88.8388 62.2923 89.513 62.2923C90.0973 62.2923 90.8164 62.2474 91.131 60.9889C91.3108 59.7754 91.8052 55.0563 92.4793 51.5955C93.4232 52.7191 94.9064 53.4832 97.4233 53.4832ZM95.0861 43.6853C95.221 42.4268 95.5356 41.1684 95.5356 41.1684C95.7154 41.3481 96.5244 41.6628 96.5693 41.483C97.0637 39.2807 99.221 32.4941 101.333 32.4941C102.772 32.4941 102.367 35.2357 102.277 36.3593C102.053 38.6515 100.3 49.0337 96.839 49.0337C95.3558 49.0337 94.8165 46.6516 95.0861 43.6853Z" fill="white"/>
<path d="M108.297 46.7415C108.297 52.3596 113.87 55.5506 119.128 55.5506C126.814 55.5506 130.23 49.8427 130.23 46.2022C130.23 44.3594 128.522 43.5504 126.454 43.5504C125.735 43.5504 125.241 43.91 125.241 43.91C124.791 46.4718 122.23 51.2809 118.005 51.2809C116.342 51.2809 115.353 50.3371 115.353 48.1348C115.353 45.0336 116.297 42.7864 116.342 42.6965C116.432 42.8763 117.6 44.8089 120.207 44.8089C123.128 44.8089 126.589 40.3144 126.589 34.5615C126.589 29.6176 121.78 27.685 119.173 27.685C112.387 27.685 108.297 38.5616 108.297 46.7415ZM116.926 39.7301C117.376 37.438 118.544 34.4716 119.533 32.3592C119.803 31.7749 119.982 31.6401 120.162 31.6401C120.387 31.6401 120.656 31.8199 120.612 33.4828C120.567 36.5391 119.398 40.674 117.915 40.674C117.106 40.674 116.926 39.7301 116.926 39.7301Z" fill="white"/>
<path d="M135.635 37.438C135.905 35.1458 136.579 32.2693 136.849 30.2019C136.849 30.2019 133.927 28.7187 132.13 28.7187C129.793 28.7187 129.343 33.5727 128.984 36.9436C127.95 45.2134 127.41 49.3932 127.41 50.6966C127.41 51.6854 133.882 53.5281 135.5 52.8989C135.815 47.5056 138.107 40.674 139.321 38.247C139.366 40.3594 140.04 43.4605 144.13 43.4605C147.68 43.4605 150.018 40.0897 150.018 37.3481C150.018 35.2357 147.591 35.2806 147.321 35.2806C147.141 35.2806 145.973 39.1459 143.68 39.1459C143.006 39.1459 142.647 38.5166 142.692 37.9773C142.871 35.1458 145.164 32.1345 145.253 30.6513C145.298 29.8873 145.029 28.8535 142.826 28.4041C140.444 27.9097 138.961 28.4041 138.512 29.7075C137.927 31.5053 137.029 35.0559 135.905 37.5728L135.635 37.438Z" fill="white"/>
<path d="M149.927 43.1459C154.826 42.4268 159.365 42.0223 165.433 41.9324C167.5 41.9324 164.354 35.9098 163.455 35.8649C160.579 35.7301 151.769 36.4042 146.781 37.6177C145.567 37.9324 148.174 43.4156 149.927 43.1459Z" fill="white"/>
<path d="M168.208 46.7415C168.208 52.3596 173.781 55.5506 179.04 55.5506C186.725 55.5506 190.141 49.8427 190.141 46.2022C190.141 44.3594 188.433 43.5504 186.366 43.5504C185.647 43.5504 185.152 43.91 185.152 43.91C184.703 46.4718 182.141 51.2809 177.916 51.2809C176.253 51.2809 175.265 50.3371 175.265 48.1348C175.265 45.0336 176.208 42.7864 176.253 42.6965C176.343 42.8763 177.512 44.8089 180.119 44.8089C183.04 44.8089 186.501 40.3144 186.501 34.5615C186.501 29.6176 181.692 27.685 179.085 27.685C172.298 27.685 168.208 38.5616 168.208 46.7415ZM176.838 39.7301C177.287 37.438 178.456 34.4716 179.444 32.3592C179.714 31.7749 179.894 31.6401 180.074 31.6401C180.298 31.6401 180.568 31.8199 180.523 33.4828C180.478 36.5391 179.31 40.674 177.826 40.674C177.017 40.674 176.838 39.7301 176.838 39.7301Z" fill="white"/>
<path d="M202.783 49.2584C202.783 51.0562 204.311 53.2135 207.232 53.2135C212.491 53.2135 216.536 48.7191 216.536 45.5729C216.536 42.0673 212.806 42.9662 212.806 42.9662C212.536 45.3033 211.367 49.0337 209.57 49.0337C208.806 49.0337 208.401 48.4494 208.401 47.146C208.401 43.1909 212.221 27.0558 213.12 21.0781C213.435 19.1006 208.581 18.2915 206.918 18.2915C205.929 18.2915 205.39 19.7747 205.03 21.8422C204.716 23.5501 204.041 27.8198 203.457 30.6963C203.457 30.6963 201.524 28.7187 198.378 28.7187C190.738 28.7187 187.412 39.011 187.412 44.9437C187.412 49.2135 190.109 54.2473 195.996 54.2473C199.592 54.2473 201.704 51.1011 202.603 49.2584H202.783ZM194.603 47.1011C194.963 41.6178 197.704 32.6289 200.356 32.6289C200.895 32.6289 200.985 33.348 200.895 33.9772C200.85 35.2357 200.131 36.8087 199.727 37.8425C200.041 38.4267 200.401 38.5616 200.76 38.6065C200.671 40.3594 197.21 49.6629 195.277 49.6629C194.558 49.6629 194.603 47.9101 194.603 47.1011Z" fill="white"/>
<path d="M221.408 27.5951C226.532 27.5951 228.24 24.404 228.24 22.6961C228.24 21.2579 227.026 20.6736 225.813 20.2242C226.397 18.5163 225.139 18.2017 223.071 18.2017C219.026 18.2017 217.948 22.6961 217.948 24.2242C217.948 26.6063 220.06 27.5951 221.408 27.5951ZM212.509 47.3707C212.509 51.7753 215.251 53.8428 219.566 53.8428C224.914 53.8428 229.588 49.7078 229.588 46.5168C229.588 43.4156 225.633 43.5504 225.633 43.5504C225.408 45.0785 224.195 49.3483 221.903 49.3483C221.363 49.3483 220.869 48.6292 220.959 47.1909C221.139 44.1797 223.341 36.584 224.375 33.1682C225.139 30.9659 219.431 29.7524 218.082 29.7524C217.633 29.7524 217.049 29.8423 216.869 30.3367C215.476 33.5278 212.509 43.5055 212.509 47.3707Z" fill="white"/>
<path d="M227.628 35.3705C228.078 35.3256 228.752 35.1907 229.561 35.1008C228.212 39.2807 227.224 43.5055 227.224 45.7977C227.224 50.5618 230.55 53.618 235.224 53.618C240.797 53.618 246.775 50.6966 246.775 46.0224C246.775 42.0673 242.864 42.6515 242.864 42.6515C242.55 44.719 240.168 48.9438 236.662 48.9438C235.898 48.9438 235.314 48.3595 235.314 47.0561C235.314 44.1347 236.662 39.011 238.1 34.1121C241.336 33.7974 244.617 33.5727 247.179 33.5278C248.078 33.5278 248.213 33.1682 248.213 32.8536C248.213 32.5839 247.179 30.2468 246.82 30.112C245.876 29.7524 244.932 29.303 244.482 28.6738C244.123 28.0895 242.775 28.2693 241.291 28.3591L239.853 28.449L240.752 25.7973C240.887 25.3479 236.033 23.1006 234.864 23.64C234.1 23.9995 232.887 26.3366 231.628 29.3929C228.572 29.8423 225.875 30.3367 225.156 30.7412C224.257 31.2805 225.83 35.6402 227.628 35.3705Z" fill="white"/>
<path d="M244.724 42.5616C244.5 47.5954 247.241 53.8877 254.702 53.8877C263.826 53.8877 266.522 43.0111 266.837 37.9773C267.017 33.2581 265.848 28.8086 258.343 28.8086C256.859 28.8086 255.871 29.3929 255.871 29.3929C255.646 28.9434 254.972 28.5389 254.073 28.2243C249.533 29.0783 245.084 36.629 244.724 42.5616ZM252.05 43.91C252.14 42.4718 252.5 41.3481 252.5 41.3481C252.68 41.5729 253.578 41.8425 253.623 41.7077C254.118 39.4605 256.41 32.5839 258.702 32.5839C260.275 32.5839 259.871 35.3256 259.781 36.5391C259.556 38.8312 257.668 49.3932 254.028 49.3932C252.365 49.3932 251.736 46.9662 252.05 43.91Z" fill="white"/>
<path d="M275.297 37.438C275.567 35.1458 276.241 32.2693 276.511 30.2019C276.511 30.2019 273.589 28.7187 271.792 28.7187C269.454 28.7187 269.005 33.5727 268.645 36.9436C267.612 45.2134 267.072 49.3932 267.072 50.6966C267.072 51.6854 273.544 53.5281 275.162 52.8989C275.477 47.5056 277.769 40.674 278.983 38.247C279.028 40.3594 279.702 43.4605 283.792 43.4605C287.342 43.4605 289.68 40.0897 289.68 37.3481C289.68 35.2357 287.253 35.2806 286.983 35.2806C286.803 35.2806 285.634 39.1459 283.342 39.1459C282.668 39.1459 282.309 38.5166 282.354 37.9773C282.533 35.1458 284.825 32.1345 284.915 30.6513C284.96 29.8873 284.691 28.8535 282.488 28.4041C280.106 27.9097 278.623 28.4041 278.174 29.7075C277.589 31.5053 276.691 35.0559 275.567 37.5728L275.297 37.438Z" fill="white"/>
<path d="M50.4157 53.4832C57.472 53.4832 62.1463 44.9887 62.1912 37.8425C62.2362 33.3929 59.3148 29.1232 54.281 29.1232C52.2135 29.1232 50.4607 30.6064 48.9775 32.6289L49.3371 30.3367C49.427 29.8423 45.2471 28.1794 43.674 28.1794C41.7414 28.1794 40.5279 37.9324 40.2582 43.5055C38.3706 51.8202 35.8537 60.3597 37.4267 60.8541C38.2357 61.1687 41.8313 62.2923 42.5055 62.2923C43.0898 62.2923 43.8089 62.2474 44.1235 60.9889C44.3033 59.7754 44.7977 55.0563 45.4718 51.5955C46.4157 52.7191 47.8988 53.4832 50.4157 53.4832ZM48.0786 43.6853C48.2134 42.4268 48.5281 41.1684 48.5281 41.1684C48.7078 41.3481 49.5168 41.6628 49.5618 41.483C50.0562 39.2807 52.2135 32.4941 54.3259 32.4941C55.7641 32.4941 55.3596 35.2357 55.2698 36.3593C55.045 38.6515 53.2922 49.0337 49.8315 49.0337C48.3483 49.0337 47.8089 46.6516 48.0786 43.6853Z" stroke="#131313" stroke-width="8" mask="url(#path-2-outside-1_83_6)"/>
<path d="M77.8737 49.9326C78.0086 51.0112 78.9524 53.4832 83.0424 53.4832C88.211 53.4832 90.638 49.5281 90.638 46.7415C90.638 43.2358 86.4582 43.8201 86.4582 43.8201C86.1885 46.6966 85.6492 49.2584 83.8064 49.2584C82.8177 49.2584 82.548 47.7752 82.6379 46.0224C82.7727 42.6965 83.6716 38.2919 84.975 34.2469C85.2896 33.2132 82.5929 33.1682 81.9637 33.0334C81.9637 33.0334 82.0536 32.6738 82.0536 32.3143C82.0536 30.112 78.6827 28.0895 73.5141 28.0895C66.1432 28.0895 62.0982 36.2245 62.0982 43.9999C62.0982 49.8876 65.9185 53.2135 71.4916 53.2135C74.2782 53.2135 76.4355 51.5056 77.5591 49.9326H77.8737ZM70.0534 45.528C70.323 41.438 72.4804 32.1345 74.9074 32.1345C75.5366 32.1345 75.4917 33.0334 75.4467 33.3929C75.267 34.7862 74.8625 36.0447 74.0085 37.3031C74.413 37.9324 75.5366 38.1571 75.5366 38.1571C75.4018 39.5504 72.9748 48.8539 70.9523 48.8539C70.1433 48.8539 69.8287 47.955 70.0534 45.528Z" stroke="#131313" stroke-width="8" mask="url(#path-2-outside-1_83_6)"/>
<path d="M97.4233 53.4832C104.48 53.4832 109.154 44.9887 109.199 37.8425C109.244 33.3929 106.322 29.1232 101.288 29.1232C99.221 29.1232 97.4682 30.6064 95.985 32.6289L96.3446 30.3367C96.4345 29.8423 92.2546 28.1794 90.6816 28.1794C88.7489 28.1794 87.5354 37.9324 87.2658 43.5055C85.3781 51.8202 82.8612 60.3597 84.4343 60.8541C85.2433 61.1687 88.8388 62.2923 89.513 62.2923C90.0973 62.2923 90.8164 62.2474 91.131 60.9889C91.3108 59.7754 91.8052 55.0563 92.4793 51.5955C93.4232 52.7191 94.9064 53.4832 97.4233 53.4832ZM95.0861 43.6853C95.221 42.4268 95.5356 41.1684 95.5356 41.1684C95.7154 41.3481 96.5244 41.6628 96.5693 41.483C97.0637 39.2807 99.221 32.4941 101.333 32.4941C102.772 32.4941 102.367 35.2357 102.277 36.3593C102.053 38.6515 100.3 49.0337 96.839 49.0337C95.3558 49.0337 94.8165 46.6516 95.0861 43.6853Z" stroke="#131313" stroke-width="8" mask="url(#path-2-outside-1_83_6)"/>
<path d="M108.297 46.7415C108.297 52.3596 113.87 55.5506 119.128 55.5506C126.814 55.5506 130.23 49.8427 130.23 46.2022C130.23 44.3594 128.522 43.5504 126.454 43.5504C125.735 43.5504 125.241 43.91 125.241 43.91C124.791 46.4718 122.23 51.2809 118.005 51.2809C116.342 51.2809 115.353 50.3371 115.353 48.1348C115.353 45.0336 116.297 42.7864 116.342 42.6965C116.432 42.8763 117.6 44.8089 120.207 44.8089C123.128 44.8089 126.589 40.3144 126.589 34.5615C126.589 29.6176 121.78 27.685 119.173 27.685C112.387 27.685 108.297 38.5616 108.297 46.7415ZM116.926 39.7301C117.376 37.438 118.544 34.4716 119.533 32.3592C119.803 31.7749 119.982 31.6401 120.162 31.6401C120.387 31.6401 120.656 31.8199 120.612 33.4828C120.567 36.5391 119.398 40.674 117.915 40.674C117.106 40.674 116.926 39.7301 116.926 39.7301Z" stroke="#131313" stroke-width="8" mask="url(#path-2-outside-1_83_6)"/>
<path d="M135.635 37.438C135.905 35.1458 136.579 32.2693 136.849 30.2019C136.849 30.2019 133.927 28.7187 132.13 28.7187C129.793 28.7187 129.343 33.5727 128.984 36.9436C127.95 45.2134 127.41 49.3932 127.41 50.6966C127.41 51.6854 133.882 53.5281 135.5 52.8989C135.815 47.5056 138.107 40.674 139.321 38.247C139.366 40.3594 140.04 43.4605 144.13 43.4605C147.68 43.4605 150.018 40.0897 150.018 37.3481C150.018 35.2357 147.591 35.2806 147.321 35.2806C147.141 35.2806 145.973 39.1459 143.68 39.1459C143.006 39.1459 142.647 38.5166 142.692 37.9773C142.871 35.1458 145.164 32.1345 145.253 30.6513C145.298 29.8873 145.029 28.8535 142.826 28.4041C140.444 27.9097 138.961 28.4041 138.512 29.7075C137.927 31.5053 137.029 35.0559 135.905 37.5728L135.635 37.438Z" stroke="#131313" stroke-width="8" mask="url(#path-2-outside-1_83_6)"/>
<path d="M149.927 43.1459C154.826 42.4268 159.365 42.0223 165.433 41.9324C167.5 41.9324 164.354 35.9098 163.455 35.8649C160.579 35.7301 151.769 36.4042 146.781 37.6177C145.567 37.9324 148.174 43.4156 149.927 43.1459Z" stroke="#131313" stroke-width="8" mask="url(#path-2-outside-1_83_6)"/>
<path d="M168.208 46.7415C168.208 52.3596 173.781 55.5506 179.04 55.5506C186.725 55.5506 190.141 49.8427 190.141 46.2022C190.141 44.3594 188.433 43.5504 186.366 43.5504C185.647 43.5504 185.152 43.91 185.152 43.91C184.703 46.4718 182.141 51.2809 177.916 51.2809C176.253 51.2809 175.265 50.3371 175.265 48.1348C175.265 45.0336 176.208 42.7864 176.253 42.6965C176.343 42.8763 177.512 44.8089 180.119 44.8089C183.04 44.8089 186.501 40.3144 186.501 34.5615C186.501 29.6176 181.692 27.685 179.085 27.685C172.298 27.685 168.208 38.5616 168.208 46.7415ZM176.838 39.7301C177.287 37.438 178.456 34.4716 179.444 32.3592C179.714 31.7749 179.894 31.6401 180.074 31.6401C180.298 31.6401 180.568 31.8199 180.523 33.4828C180.478 36.5391 179.31 40.674 177.826 40.674C177.017 40.674 176.838 39.7301 176.838 39.7301Z" stroke="#131313" stroke-width="8" mask="url(#path-2-outside-1_83_6)"/>
<path d="M202.783 49.2584C202.783 51.0562 204.311 53.2135 207.232 53.2135C212.491 53.2135 216.536 48.7191 216.536 45.5729C216.536 42.0673 212.806 42.9662 212.806 42.9662C212.536 45.3033 211.367 49.0337 209.57 49.0337C208.806 49.0337 208.401 48.4494 208.401 47.146C208.401 43.1909 212.221 27.0558 213.12 21.0781C213.435 19.1006 208.581 18.2915 206.918 18.2915C205.929 18.2915 205.39 19.7747 205.03 21.8422C204.716 23.5501 204.041 27.8198 203.457 30.6963C203.457 30.6963 201.524 28.7187 198.378 28.7187C190.738 28.7187 187.412 39.011 187.412 44.9437C187.412 49.2135 190.109 54.2473 195.996 54.2473C199.592 54.2473 201.704 51.1011 202.603 49.2584H202.783ZM194.603 47.1011C194.963 41.6178 197.704 32.6289 200.356 32.6289C200.895 32.6289 200.985 33.348 200.895 33.9772C200.85 35.2357 200.131 36.8087 199.727 37.8425C200.041 38.4267 200.401 38.5616 200.76 38.6065C200.671 40.3594 197.21 49.6629 195.277 49.6629C194.558 49.6629 194.603 47.9101 194.603 47.1011Z" stroke="#131313" stroke-width="8" mask="url(#path-2-outside-1_83_6)"/>
<path d="M221.408 27.5951C226.532 27.5951 228.24 24.404 228.24 22.6961C228.24 21.2579 227.026 20.6736 225.813 20.2242C226.397 18.5163 225.139 18.2017 223.071 18.2017C219.026 18.2017 217.948 22.6961 217.948 24.2242C217.948 26.6063 220.06 27.5951 221.408 27.5951ZM212.509 47.3707C212.509 51.7753 215.251 53.8428 219.566 53.8428C224.914 53.8428 229.588 49.7078 229.588 46.5168C229.588 43.4156 225.633 43.5504 225.633 43.5504C225.408 45.0785 224.195 49.3483 221.903 49.3483C221.363 49.3483 220.869 48.6292 220.959 47.1909C221.139 44.1797 223.341 36.584 224.375 33.1682C225.139 30.9659 219.431 29.7524 218.082 29.7524C217.633 29.7524 217.049 29.8423 216.869 30.3367C215.476 33.5278 212.509 43.5055 212.509 47.3707Z" stroke="#131313" stroke-width="8" mask="url(#path-2-outside-1_83_6)"/>
<path d="M227.628 35.3705C228.078 35.3256 228.752 35.1907 229.561 35.1008C228.212 39.2807 227.224 43.5055 227.224 45.7977C227.224 50.5618 230.55 53.618 235.224 53.618C240.797 53.618 246.775 50.6966 246.775 46.0224C246.775 42.0673 242.864 42.6515 242.864 42.6515C242.55 44.719 240.168 48.9438 236.662 48.9438C235.898 48.9438 235.314 48.3595 235.314 47.0561C235.314 44.1347 236.662 39.011 238.1 34.1121C241.336 33.7974 244.617 33.5727 247.179 33.5278C248.078 33.5278 248.213 33.1682 248.213 32.8536C248.213 32.5839 247.179 30.2468 246.82 30.112C245.876 29.7524 244.932 29.303 244.482 28.6738C244.123 28.0895 242.775 28.2693 241.291 28.3591L239.853 28.449L240.752 25.7973C240.887 25.3479 236.033 23.1006 234.864 23.64C234.1 23.9995 232.887 26.3366 231.628 29.3929C228.572 29.8423 225.875 30.3367 225.156 30.7412C224.257 31.2805 225.83 35.6402 227.628 35.3705Z" stroke="#131313" stroke-width="8" mask="url(#path-2-outside-1_83_6)"/>
<path d="M244.724 42.5616C244.5 47.5954 247.241 53.8877 254.702 53.8877C263.826 53.8877 266.522 43.0111 266.837 37.9773C267.017 33.2581 265.848 28.8086 258.343 28.8086C256.859 28.8086 255.871 29.3929 255.871 29.3929C255.646 28.9434 254.972 28.5389 254.073 28.2243C249.533 29.0783 245.084 36.629 244.724 42.5616ZM252.05 43.91C252.14 42.4718 252.5 41.3481 252.5 41.3481C252.68 41.5729 253.578 41.8425 253.623 41.7077C254.118 39.4605 256.41 32.5839 258.702 32.5839C260.275 32.5839 259.871 35.3256 259.781 36.5391C259.556 38.8312 257.668 49.3932 254.028 49.3932C252.365 49.3932 251.736 46.9662 252.05 43.91Z" stroke="#131313" stroke-width="8" mask="url(#path-2-outside-1_83_6)"/>
<path d="M275.297 37.438C275.567 35.1458 276.241 32.2693 276.511 30.2019C276.511 30.2019 273.589 28.7187 271.792 28.7187C269.454 28.7187 269.005 33.5727 268.645 36.9436C267.612 45.2134 267.072 49.3932 267.072 50.6966C267.072 51.6854 273.544 53.5281 275.162 52.8989C275.477 47.5056 277.769 40.674 278.983 38.247C279.028 40.3594 279.702 43.4605 283.792 43.4605C287.342 43.4605 289.68 40.0897 289.68 37.3481C289.68 35.2357 287.253 35.2806 286.983 35.2806C286.803 35.2806 285.634 39.1459 283.342 39.1459C282.668 39.1459 282.309 38.5166 282.354 37.9773C282.533 35.1458 284.825 32.1345 284.915 30.6513C284.96 29.8873 284.691 28.8535 282.488 28.4041C280.106 27.9097 278.623 28.4041 278.174 29.7075C277.589 31.5053 276.691 35.0559 275.567 37.5728L275.297 37.438Z" stroke="#131313" stroke-width="8" mask="url(#path-2-outside-1_83_6)"/>
</svg>
