<svg width="290" height="78" viewBox="0 0 290 78" fill="none" xmlns="http://www.w3.org/2000/svg">
<path d="M48.5872 9.82298C50.4576 12.998 50.99 16.7859 50.0675 20.3534L39.3478 61.8081C38.1094 66.5973 35.0192 70.6984 30.7571 73.2091C26.4949 75.7199 21.41 76.4347 16.6208 75.1963C11.8316 73.9579 7.73056 70.8677 5.2198 66.6055C2.70904 62.3434 1.99424 57.2584 3.23266 52.4692L11.5702 20.2267C11.8609 19.1023 12.5864 18.1395 13.587 17.5501C14.5876 16.9606 15.7814 16.7928 16.9058 17.0836C18.0301 17.3743 18.9929 18.0998 19.5824 19.1004C20.1718 20.101 20.3396 21.2948 20.0489 22.4191L11.7114 54.6617C11.0544 57.2022 11.4336 59.8996 12.7655 62.1605C14.0973 64.4214 16.2728 66.0606 18.8133 66.7176C21.3538 67.3745 24.0511 66.9953 26.3121 65.6635C28.573 64.3316 30.2122 62.1561 30.8691 59.6157L41.5888 18.1609C41.7577 17.5079 41.7963 16.828 41.7024 16.16C41.6085 15.4921 41.3839 14.8492 41.0416 14.268C40.6992 13.6868 40.2457 13.1788 39.707 12.7729C39.1683 12.3669 38.5549 12.0711 37.9019 11.9022C37.2489 11.7334 36.569 11.6948 35.901 11.7887C35.2331 11.8826 34.5901 12.1071 34.009 12.4495C33.4278 12.7918 32.9197 13.2453 32.5138 13.784C32.1079 14.3227 31.8121 14.9361 31.6432 15.5891L20.9235 57.0439C20.8984 57.1411 20.9129 57.2444 20.9639 57.3309C21.0149 57.4175 21.0982 57.4803 21.1954 57.5054C21.2927 57.5306 21.396 57.516 21.4825 57.4651C21.5691 57.4141 21.6318 57.3308 21.657 57.2335L29.9945 24.991C30.2852 23.8666 31.0107 22.9038 32.0113 22.3144C33.012 21.7249 34.2057 21.5571 35.3301 21.8478C36.4544 22.1386 37.4172 22.8641 38.0067 23.8647C38.5961 24.8653 38.7639 26.0591 38.4732 27.1834L30.1357 59.426C29.529 61.772 28.0153 63.7808 25.9275 65.0107C23.8397 66.2406 21.3489 66.5907 19.0029 65.9841C16.657 65.3775 14.6481 63.8638 13.4182 61.776C12.1883 59.6882 11.8382 57.1973 12.4448 54.8514L23.1645 13.3966C24.087 9.82909 26.389 6.77411 29.5639 4.90379C32.7389 3.03347 36.5268 2.501 40.0944 3.42353C43.662 4.34606 46.7169 6.64801 48.5872 9.82298Z" fill="#BCBCBC" stroke="#131313" stroke-width="4"/>
<path d="M50.4159 53.4832C57.4722 53.4832 62.1465 44.9886 62.1914 37.8424C62.2364 33.3929 59.315 29.1232 54.2812 29.1232C52.2137 29.1232 50.4609 30.6064 48.9777 32.6289L49.3373 30.3367C49.4272 29.8423 45.2473 28.1793 43.6742 28.1793C41.7416 28.1793 40.5281 37.9323 40.2584 43.5055C38.3708 51.8202 35.8539 60.3597 37.4269 60.8541C38.2359 61.1687 41.8315 62.2923 42.5057 62.2923C43.09 62.2923 43.8091 62.2474 44.1237 60.9889C44.3035 59.7754 44.7979 55.0562 45.472 51.5955C46.4159 52.7191 47.899 53.4832 50.4159 53.4832ZM48.0788 43.6852C48.2136 42.4268 48.5283 41.1683 48.5283 41.1683C48.708 41.3481 49.517 41.6627 49.562 41.483C50.0564 39.2807 52.2137 32.494 54.3261 32.494C55.7643 32.494 55.3598 35.2357 55.27 36.3593C55.0452 38.6514 53.2924 49.0337 49.8317 49.0337C48.3485 49.0337 47.8091 46.6516 48.0788 43.6852ZM77.8739 49.9325C78.0088 51.0112 78.9526 53.4832 83.0426 53.4832C88.2112 53.4832 90.6382 49.528 90.6382 46.7415C90.6382 43.2358 86.4584 43.8201 86.4584 43.8201C86.1887 46.6965 85.6494 49.2584 83.8066 49.2584C82.8179 49.2584 82.5482 47.7752 82.6381 46.0224C82.7729 42.6965 83.6718 38.2919 84.9752 34.2469C85.2898 33.2131 82.5931 33.1682 81.9639 33.0334C81.9639 33.0334 82.0538 32.6738 82.0538 32.3143C82.0538 30.112 78.6829 28.0895 73.5143 28.0895C66.1434 28.0895 62.0984 36.2244 62.0984 43.9999C62.0984 49.8876 65.9187 53.2135 71.4918 53.2135C74.2784 53.2135 76.4357 51.5056 77.5593 49.9325H77.8739ZM70.0536 45.528C70.3232 41.438 72.4806 32.1345 74.9076 32.1345C75.5368 32.1345 75.4919 33.0334 75.4469 33.3929C75.2672 34.7862 74.8627 36.0447 74.0087 37.3031C74.4132 37.9323 75.5368 38.1571 75.5368 38.1571C75.402 39.5503 72.975 48.8539 70.9525 48.8539C70.1435 48.8539 69.8289 47.955 70.0536 45.528ZM97.4235 53.4832C104.48 53.4832 109.154 44.9886 109.199 37.8424C109.244 33.3929 106.322 29.1232 101.289 29.1232C99.2212 29.1232 97.4684 30.6064 95.9852 32.6289L96.3448 30.3367C96.4347 29.8423 92.2548 28.1793 90.6818 28.1793C88.7491 28.1793 87.5356 37.9323 87.266 43.5055C85.3783 51.8202 82.8614 60.3597 84.4345 60.8541C85.2435 61.1687 88.839 62.2923 89.5132 62.2923C90.0975 62.2923 90.8166 62.2474 91.1312 60.9889C91.311 59.7754 91.8054 55.0562 92.4795 51.5955C93.4234 52.7191 94.9066 53.4832 97.4235 53.4832ZM95.0863 43.6852C95.2212 42.4268 95.5358 41.1683 95.5358 41.1683C95.7156 41.3481 96.5246 41.6627 96.5695 41.483C97.0639 39.2807 99.2212 32.494 101.334 32.494C102.772 32.494 102.367 35.2357 102.277 36.3593C102.053 38.6514 100.3 49.0337 96.8392 49.0337C95.356 49.0337 94.8167 46.6516 95.0863 43.6852ZM108.297 46.7415C108.297 52.3596 113.87 55.5506 119.129 55.5506C126.814 55.5506 130.23 49.8427 130.23 46.2021C130.23 44.3594 128.522 43.5504 126.455 43.5504C125.735 43.5504 125.241 43.91 125.241 43.91C124.792 46.4718 122.23 51.2809 118.005 51.2809C116.342 51.2809 115.353 50.337 115.353 48.1348C115.353 45.0336 116.297 42.7864 116.342 42.6965C116.432 42.8762 117.6 44.8089 120.207 44.8089C123.129 44.8089 126.589 40.3144 126.589 34.5615C126.589 29.6176 121.78 27.685 119.173 27.685C112.387 27.685 108.297 38.5616 108.297 46.7415ZM116.926 39.7301C117.376 37.4379 118.544 34.4716 119.533 32.3592C119.803 31.7749 119.982 31.6401 120.162 31.6401C120.387 31.6401 120.657 31.8199 120.612 33.4828C120.567 36.539 119.398 40.674 117.915 40.674C117.106 40.674 116.926 39.7301 116.926 39.7301ZM135.636 37.4379C135.905 35.1458 136.579 32.2693 136.849 30.2019C136.849 30.2019 133.928 28.7187 132.13 28.7187C129.793 28.7187 129.343 33.5727 128.984 36.9435C127.95 45.2134 127.411 49.3932 127.411 50.6966C127.411 51.6854 133.883 53.5281 135.501 52.8989C135.815 47.5055 138.107 40.674 139.321 38.2469C139.366 40.3593 140.04 43.4605 144.13 43.4605C147.681 43.4605 150.018 40.0897 150.018 37.3481C150.018 35.2357 147.591 35.2806 147.321 35.2806C147.141 35.2806 145.973 39.1458 143.681 39.1458C143.006 39.1458 142.647 38.5166 142.692 37.9773C142.872 35.1458 145.164 32.1345 145.254 30.6513C145.299 29.8872 145.029 28.8535 142.827 28.4041C140.445 27.9097 138.961 28.4041 138.512 29.7075C137.928 31.5052 137.029 35.0559 135.905 37.5728L135.636 37.4379ZM149.927 43.1459C154.826 42.4268 159.365 42.0223 165.433 41.9324C167.5 41.9324 164.354 35.9098 163.455 35.8649C160.579 35.73 151.77 36.4042 146.781 37.6177C145.567 37.9323 148.174 43.4156 149.927 43.1459ZM168.208 46.7415C168.208 52.3596 173.782 55.5506 179.04 55.5506C186.726 55.5506 190.141 49.8427 190.141 46.2021C190.141 44.3594 188.434 43.5504 186.366 43.5504C185.647 43.5504 185.153 43.91 185.153 43.91C184.703 46.4718 182.141 51.2809 177.916 51.2809C176.254 51.2809 175.265 50.337 175.265 48.1348C175.265 45.0336 176.209 42.7864 176.254 42.6965C176.343 42.8762 177.512 44.8089 180.119 44.8089C183.04 44.8089 186.501 40.3144 186.501 34.5615C186.501 29.6176 181.692 27.685 179.085 27.685C172.298 27.685 168.208 38.5616 168.208 46.7415ZM176.838 39.7301C177.287 37.4379 178.456 34.4716 179.445 32.3592C179.714 31.7749 179.894 31.6401 180.074 31.6401C180.299 31.6401 180.568 31.8199 180.523 33.4828C180.478 36.539 179.31 40.674 177.827 40.674C177.018 40.674 176.838 39.7301 176.838 39.7301ZM202.783 49.2584C202.783 51.0562 204.311 53.2135 207.233 53.2135C212.491 53.2135 216.536 48.719 216.536 45.5729C216.536 42.0672 212.806 42.9661 212.806 42.9661C212.536 45.3033 211.368 49.0337 209.57 49.0337C208.806 49.0337 208.401 48.4494 208.401 47.146C208.401 43.1909 212.222 27.0557 213.12 21.0781C213.435 19.1005 208.581 18.2915 206.918 18.2915C205.929 18.2915 205.39 19.7747 205.03 21.8422C204.716 23.5501 204.042 27.8198 203.457 30.6962C203.457 30.6962 201.525 28.7187 198.379 28.7187C190.738 28.7187 187.412 39.011 187.412 44.9437C187.412 49.2134 190.109 54.2472 195.996 54.2472C199.592 54.2472 201.704 51.1011 202.603 49.2584H202.783ZM194.603 47.101C194.963 41.6178 197.704 32.6289 200.356 32.6289C200.895 32.6289 200.985 33.348 200.895 33.9772C200.851 35.2357 200.131 36.8087 199.727 37.8424C200.042 38.4267 200.401 38.5616 200.761 38.6065C200.671 40.3593 197.21 49.6629 195.277 49.6629C194.558 49.6629 194.603 47.91 194.603 47.101ZM221.408 27.5951C226.532 27.5951 228.24 24.404 228.24 22.6961C228.24 21.2579 227.027 20.6736 225.813 20.2241C226.397 18.5163 225.139 18.2016 223.071 18.2016C219.026 18.2016 217.948 22.6961 217.948 24.2242C217.948 26.6063 220.06 27.5951 221.408 27.5951ZM212.509 47.3707C212.509 51.7753 215.251 53.8427 219.566 53.8427C224.914 53.8427 229.588 49.7078 229.588 46.5168C229.588 43.4156 225.633 43.5504 225.633 43.5504C225.409 45.0785 224.195 49.3483 221.903 49.3483C221.364 49.3483 220.869 48.6292 220.959 47.1909C221.139 44.1796 223.341 36.584 224.375 33.1682C225.139 30.9659 219.431 29.7524 218.083 29.7524C217.633 29.7524 217.049 29.8423 216.869 30.3367C215.476 33.5278 212.509 43.5055 212.509 47.3707ZM227.628 35.3705C228.078 35.3255 228.752 35.1907 229.561 35.1008C228.213 39.2807 227.224 43.5055 227.224 45.7976C227.224 50.5618 230.55 53.618 235.224 53.618C240.797 53.618 246.775 50.6966 246.775 46.0224C246.775 42.0672 242.865 42.6515 242.865 42.6515C242.55 44.719 240.168 48.9438 236.662 48.9438C235.898 48.9438 235.314 48.3595 235.314 47.0561C235.314 44.1347 236.662 39.011 238.1 34.112C241.336 33.7974 244.617 33.5727 247.179 33.5278C248.078 33.5278 248.213 33.1682 248.213 32.8536C248.213 32.5839 247.179 30.2468 246.82 30.112C245.876 29.7524 244.932 29.303 244.483 28.6737C244.123 28.0895 242.775 28.2692 241.292 28.3591L239.853 28.449L240.752 25.7973C240.887 25.3478 236.033 23.1006 234.864 23.6399C234.1 23.9995 232.887 26.3366 231.628 29.3929C228.572 29.8423 225.876 30.3367 225.156 30.7412C224.258 31.2805 225.831 35.6402 227.628 35.3705ZM244.725 42.5616C244.5 47.5954 247.241 53.8877 254.702 53.8877C263.826 53.8877 266.523 43.0111 266.837 37.9773C267.017 33.2581 265.849 28.8086 258.343 28.8086C256.86 28.8086 255.871 29.3929 255.871 29.3929C255.646 28.9434 254.972 28.5389 254.073 28.2243C249.534 29.0782 245.084 36.6289 244.725 42.5616ZM252.051 43.91C252.14 42.4717 252.5 41.3481 252.5 41.3481C252.68 41.5728 253.579 41.8425 253.624 41.7077C254.118 39.4604 256.41 32.5839 258.702 32.5839C260.275 32.5839 259.871 35.3255 259.781 36.539C259.556 38.8312 257.669 49.3932 254.028 49.3932C252.365 49.3932 251.736 46.9662 252.051 43.91ZM275.297 37.4379C275.567 35.1458 276.241 32.2693 276.511 30.2019C276.511 30.2019 273.59 28.7187 271.792 28.7187C269.455 28.7187 269.005 33.5727 268.646 36.9435C267.612 45.2134 267.073 49.3932 267.073 50.6966C267.073 51.6854 273.545 53.5281 275.163 52.8989C275.477 47.5055 277.769 40.674 278.983 38.2469C279.028 40.3593 279.702 43.4605 283.792 43.4605C287.343 43.4605 289.68 40.0897 289.68 37.3481C289.68 35.2357 287.253 35.2806 286.983 35.2806C286.803 35.2806 285.635 39.1458 283.343 39.1458C282.668 39.1458 282.309 38.5166 282.354 37.9773C282.534 35.1458 284.826 32.1345 284.916 30.6513C284.961 29.8872 284.691 28.8535 282.489 28.4041C280.107 27.9097 278.623 28.4041 278.174 29.7075C277.59 31.5052 276.691 35.0559 275.567 37.5728L275.297 37.4379Z" fill="white"/>
<path d="M62.1914 37.8424L58.1916 37.802L58.1916 37.8097L58.1915 37.8173L62.1914 37.8424ZM48.9777 32.6289L45.026 32.009L52.2033 34.9943L48.9777 32.6289ZM49.3373 30.3367L45.4018 29.6211L45.3931 29.6689L45.3856 29.7168L49.3373 30.3367ZM40.2584 43.5055L44.1592 44.391L44.2368 44.0491L44.2538 43.6988L40.2584 43.5055ZM37.4269 60.8541L38.8767 57.1261L38.7529 57.0779L38.6262 57.0381L37.4269 60.8541ZM44.1237 60.9889L48.0043 61.9591L48.0518 61.769L48.0805 61.5751L44.1237 60.9889ZM45.472 51.5955L48.5348 49.0227L43.1474 42.6091L41.5458 50.8307L45.472 51.5955ZM48.0788 43.6852L44.1016 43.2591L44.0982 43.2911L44.0952 43.3231L48.0788 43.6852ZM48.5283 41.1683L51.3567 38.3399L46.3611 33.3444L44.6477 40.1982L48.5283 41.1683ZM49.562 41.483L53.4426 42.4531L53.4543 42.4062L53.4649 42.3591L49.562 41.483ZM55.27 36.3593L59.2509 36.7496L59.2544 36.7139L59.2572 36.6783L55.27 36.3593ZM50.4159 57.4832C55.7079 57.4832 59.7255 54.2822 62.2382 50.5954C64.7532 46.9055 66.164 42.2162 66.1913 37.8676L58.1915 37.8173C58.1739 40.6149 57.2252 43.746 55.6276 46.0899C54.028 48.4369 52.1802 49.4832 50.4159 49.4832V57.4832ZM66.1912 37.8828C66.2518 31.8814 62.1583 25.1232 54.2812 25.1232V33.1232C55.5604 33.1232 56.4415 33.6238 57.0688 34.376C57.7537 35.1973 58.2055 36.4282 58.1916 37.802L66.1912 37.8828ZM54.2812 25.1232C50.1936 25.1232 47.3984 28.0185 45.7521 30.2634L52.2033 34.9943C52.7973 34.1844 53.3121 33.6717 53.7195 33.3837C54.0951 33.1182 54.2598 33.1232 54.2812 33.1232V25.1232ZM52.9294 33.2487L53.2889 30.9566L45.3856 29.7168L45.026 32.009L52.9294 33.2487ZM53.2727 31.0522C53.5453 29.553 52.9185 28.4417 52.6404 28.0219C52.324 27.5443 51.9728 27.2232 51.7803 27.059C51.3764 26.7143 50.9493 26.4592 50.6613 26.2984C50.0367 25.9497 49.2875 25.6195 48.5767 25.3436C47.8484 25.061 47.0422 24.7896 46.2691 24.5828C45.5801 24.3985 44.6099 24.1793 43.6742 24.1793V32.1793C43.5532 32.1793 43.5411 32.1669 43.6816 32.1916C43.8033 32.2129 43.9778 32.2511 44.2017 32.311C44.6518 32.4315 45.18 32.6067 45.682 32.8016C46.2016 33.0032 46.5788 33.1815 46.7618 33.2836C46.8776 33.3483 46.7746 33.3042 46.5882 33.1451C46.5045 33.0737 46.2354 32.839 45.9711 32.4401C45.7451 32.0989 45.1404 31.0586 45.4018 29.6211L53.2727 31.0522ZM43.6742 24.1793C41.6206 24.1793 40.3609 25.4748 39.8416 26.134C39.2682 26.8618 38.8907 27.6837 38.6355 28.3395C38.1083 29.6941 37.7131 31.3798 37.4092 33.0264C36.7901 36.3802 36.4042 40.3965 36.2631 43.3121L44.2538 43.6988C44.3824 41.0413 44.738 37.3945 45.2763 34.4786C45.551 32.9903 45.8384 31.8894 46.0907 31.2411C46.2253 30.8955 46.2618 30.912 46.1258 31.0846C46.0438 31.1887 45.2448 32.1793 43.6742 32.1793V24.1793ZM36.3577 42.6199C35.4678 46.5399 34.2968 51.0639 33.6276 54.3031C33.2884 55.9454 33.0035 57.5856 32.9442 58.9273C32.9159 59.5667 32.9203 60.4466 33.1508 61.3241C33.3594 62.118 34.0671 63.9911 36.2276 64.6701L38.6262 57.0381C40.3935 57.5935 40.8358 59.0915 40.8883 59.2914C40.9627 59.5748 40.9204 59.6415 40.9364 59.2809C40.9655 58.6225 41.1329 57.5155 41.4622 55.9217C42.1301 52.6889 43.1615 48.7857 44.1592 44.391L36.3577 42.6199ZM35.9772 64.5821C36.5486 64.8043 37.7867 65.2033 38.8839 65.5274C39.4545 65.6959 40.0544 65.8642 40.5786 65.9942C40.8384 66.0587 41.1147 66.1225 41.3781 66.1727C41.5656 66.2084 42.0148 66.2923 42.5057 66.2923V58.2923C42.828 58.2923 43.0174 58.3411 42.876 58.3142C42.8106 58.3017 42.6891 58.2753 42.5044 58.2295C42.1395 58.139 41.6635 58.0067 41.1498 57.855C40.0784 57.5386 39.1143 57.2184 38.8767 57.1261L35.9772 64.5821ZM42.5057 66.2923C42.7819 66.2923 44.1024 66.3344 45.4147 65.5773C46.9184 64.7098 47.6713 63.2909 48.0043 61.9591L40.2431 60.0188C40.2615 59.9454 40.4975 59.1782 41.4169 58.6478C42.1449 58.2278 42.8137 58.2923 42.5057 58.2923V66.2923ZM48.0805 61.5751C48.3101 60.0256 48.7405 55.7368 49.3982 52.3603L41.5458 50.8307C40.8552 54.3757 40.2969 59.5253 40.1669 60.4027L48.0805 61.5751ZM42.4092 54.1683C44.2743 56.3886 46.9933 57.4832 50.4159 57.4832V49.4832C49.556 49.4832 49.0958 49.3522 48.8797 49.2631C48.6927 49.1859 48.6072 49.1089 48.5348 49.0227L42.4092 54.1683ZM52.0561 44.1114C52.1054 43.6512 52.1925 43.1543 52.2746 42.7483C52.3144 42.5515 52.3504 42.3892 52.3756 42.2797C52.3881 42.2252 52.3977 42.1846 52.4036 42.1601C52.4065 42.1479 52.4085 42.1398 52.4094 42.1361C52.4099 42.1342 52.4101 42.1335 52.41 42.1338C52.4099 42.134 52.4098 42.1345 52.4096 42.1353C52.4095 42.1357 52.4094 42.1361 52.4093 42.1367C52.4092 42.1369 52.4091 42.1372 52.4091 42.1375C52.409 42.1377 52.409 42.1379 52.409 42.138C52.4089 42.1382 52.4088 42.1385 48.5283 41.1683C44.6477 40.1982 44.6476 40.1985 44.6476 40.1987C44.6475 40.1988 44.6475 40.1991 44.6474 40.1993C44.6473 40.1997 44.6472 40.2001 44.6471 40.2005C44.6469 40.2013 44.6467 40.2022 44.6464 40.2032C44.6459 40.2052 44.6454 40.2075 44.6447 40.2101C44.6434 40.2154 44.6418 40.2218 44.6399 40.2295C44.6362 40.2448 44.6313 40.265 44.6254 40.2896C44.6135 40.3389 44.5975 40.4064 44.5784 40.4896C44.5404 40.6554 44.4893 40.8863 44.4336 41.1614C44.3247 41.6993 44.1871 42.4608 44.1016 43.2591L52.0561 44.1114ZM45.6998 43.9968C46.2147 44.5117 46.7776 44.7981 46.941 44.8815C47.2172 45.0224 47.5126 45.1467 47.8031 45.2459C48.0425 45.3276 48.5128 45.4747 49.0773 45.5213C49.3233 45.5417 49.9505 45.579 50.6901 45.351C51.5275 45.0929 52.9821 44.2949 53.4426 42.4531L45.6814 40.5128C46.1306 38.716 47.5501 37.9474 48.3339 37.7059C49.0201 37.4944 49.5753 37.5352 49.7362 37.5485C50.1308 37.5811 50.3792 37.672 50.3883 37.6751C50.4484 37.6956 50.5051 37.7188 50.5776 37.7558C50.6154 37.7751 50.6917 37.8155 50.7927 37.8808C50.866 37.9281 51.096 38.0793 51.3567 38.3399L45.6998 43.9968ZM53.4649 42.3591C53.6623 41.4795 54.2497 39.4803 55.0003 37.7697C55.3822 36.8993 55.7184 36.3086 55.9508 36.0011C56.066 35.8488 56.0521 35.9059 55.8818 36.0293C55.7077 36.1555 55.1651 36.494 54.3261 36.494V28.494C52.959 28.494 51.887 29.0447 51.1886 29.5506C50.494 30.0537 49.9612 30.6583 49.5693 31.1766C48.7877 32.2105 48.1576 33.4541 47.6743 34.5555C46.6945 36.7888 45.956 39.2841 45.6591 40.6068L53.4649 42.3591ZM54.3261 36.494C53.8408 36.494 53.2578 36.3692 52.6992 36.0282C52.1603 35.6992 51.8334 35.2852 51.653 34.9811C51.3511 34.4724 51.3675 34.1244 51.3843 34.3307C51.3943 34.4533 51.3946 34.6737 51.3718 35.0112C51.3611 35.1694 51.3471 35.3303 51.3311 35.5027C51.3172 35.6534 51.2965 35.8672 51.2827 36.0403L59.2572 36.6783C59.2778 36.4207 59.4599 34.9303 59.3578 33.6798C59.3072 33.0603 59.1607 31.9567 58.533 30.8988C57.7473 29.5746 56.2793 28.494 54.3261 28.494V36.494ZM51.289 35.969C51.1982 36.8959 50.749 39.7896 49.9457 42.365C49.5375 43.6738 49.1161 44.6404 48.7538 45.199C48.2667 45.9501 48.5514 45.0337 49.8317 45.0337V53.0337C52.8423 53.0337 54.6438 50.8195 55.4657 49.5522C56.4125 48.0925 57.0922 46.3203 57.5829 44.747C58.5774 41.5583 59.117 38.1148 59.2509 36.7496L51.289 35.969ZM49.8317 45.0337C50.1981 45.0337 50.5934 45.1109 50.9736 45.2836C51.3463 45.4528 51.6187 45.6745 51.8009 45.8673C52.1309 46.2164 52.1742 46.4739 52.1329 46.3347C52.1017 46.2294 52.048 45.9765 52.0241 45.549C52.0009 45.1344 52.0096 44.6275 52.0624 44.0474L44.0952 43.3231C43.938 45.0528 43.9735 46.9584 44.463 48.6089C44.8912 50.0533 46.3102 53.0337 49.8317 53.0337V45.0337ZM77.8739 49.9325L81.8431 49.4364L81.4051 45.9325H77.8739V49.9325ZM86.4584 43.8201L85.9046 39.8586L82.7712 40.2966L82.4758 43.4467L86.4584 43.8201ZM82.6381 46.0224L86.6328 46.2272L86.6339 46.2058L86.6348 46.1844L82.6381 46.0224ZM84.9752 34.2469L88.7824 35.4736L88.7924 35.4427L88.8019 35.4115L84.9752 34.2469ZM81.9639 33.0334L78.0833 32.0632L77.0797 36.0776L81.1258 36.9446L81.9639 33.0334ZM77.5593 49.9325V45.9325H75.5009L74.3044 47.6076L77.5593 49.9325ZM70.0536 45.528L74.0365 45.8968L74.0414 45.844L74.0449 45.7911L70.0536 45.528ZM75.4469 33.3929L79.414 33.9048L79.4151 33.8969L79.416 33.8891L75.4469 33.3929ZM74.0087 37.3031L70.6988 35.0571L69.2152 37.2435L70.644 39.4661L74.0087 37.3031ZM75.5368 38.1571L79.5182 38.5423L79.8665 34.9438L76.3213 34.2347L75.5368 38.1571ZM73.9048 50.4287C74.0555 51.6343 74.6172 53.434 76.1677 54.9617C77.8049 56.5748 80.1362 57.4832 83.0426 57.4832V49.4832C82.4233 49.4832 82.081 49.39 81.9278 49.3328C81.7847 49.2794 81.76 49.2409 81.7825 49.2631C81.7973 49.2776 81.8088 49.2961 81.8152 49.3104C81.8169 49.3142 81.8314 49.3435 81.8431 49.4364L73.9048 50.4287ZM83.0426 57.4832C90.6616 57.4832 94.6382 51.4879 94.6382 46.7415H86.6382C86.6382 47.0751 86.4485 47.7939 85.8597 48.4223C85.3606 48.955 84.5172 49.4832 83.0426 49.4832V57.4832ZM94.6382 46.7415C94.6382 45.0063 94.0932 43.3993 92.9668 42.1397C91.906 40.9534 90.6108 40.3894 89.6253 40.1139C88.6347 39.8369 87.7209 39.7836 87.1115 39.7836C86.7932 39.7836 86.5224 39.7983 86.3195 39.8145C86.2173 39.8227 86.1303 39.8314 86.0608 39.8392C86.026 39.843 85.9954 39.8467 85.9693 39.85C85.9563 39.8517 85.9443 39.8532 85.9335 39.8546C85.9281 39.8554 85.923 39.8561 85.9182 39.8567C85.9158 39.857 85.9135 39.8574 85.9112 39.8577C85.9101 39.8578 85.9084 39.8581 85.9078 39.8581C85.9062 39.8584 85.9046 39.8586 86.4584 43.8201C87.0121 47.7816 87.0105 47.7818 87.009 47.782C87.0085 47.7821 87.0069 47.7823 87.0059 47.7824C87.0039 47.7827 87.0019 47.783 87 47.7832C86.9962 47.7838 86.9926 47.7842 86.9893 47.7847C86.9825 47.7856 86.9765 47.7864 86.9714 47.787C86.9612 47.7883 86.954 47.7891 86.9498 47.7896C86.9416 47.7905 86.9444 47.7901 86.9565 47.7891C86.9821 47.7871 87.0379 47.7836 87.1115 47.7836C87.2857 47.7836 87.417 47.8032 87.4713 47.8184C87.5307 47.8351 87.2805 47.7823 87.0034 47.4724C86.6607 47.0892 86.6382 46.7238 86.6382 46.7415H94.6382ZM82.4758 43.4467C82.4139 44.1073 82.3425 44.6808 82.254 45.1674C82.1631 45.6671 82.0718 45.9736 82.0071 46.1359C81.9335 46.3204 81.9717 46.1241 82.2711 45.8522C82.437 45.7015 82.6702 45.5404 82.9695 45.4222C83.2712 45.3031 83.5623 45.2584 83.8066 45.2584V53.2584C87.1798 53.2584 88.8049 50.6865 89.4377 49.0999C90.0689 47.5176 90.3044 45.6492 90.4409 44.1934L82.4758 43.4467ZM83.8066 45.2584C84.1964 45.2584 84.6272 45.3344 85.0548 45.5191C85.4787 45.7021 85.8099 45.9531 86.0527 46.2011C86.5022 46.6604 86.6297 47.0844 86.6441 47.1316C86.6681 47.2102 86.6476 47.1749 86.6331 46.9768C86.6197 46.7931 86.6167 46.542 86.6328 46.2272L78.6433 45.8175C78.5903 46.8515 78.6094 48.2098 78.9916 49.4638C79.1858 50.1009 79.5605 51.0053 80.3358 51.7974C81.2116 52.692 82.4285 53.2584 83.8066 53.2584V45.2584ZM86.6348 46.1844C86.7507 43.3259 87.5522 39.2915 88.7824 35.4736L81.168 33.0201C79.7914 37.2923 78.7951 42.0671 78.6414 45.8603L86.6348 46.1844ZM88.8019 35.4115C89.0941 34.4514 89.0897 33.3367 88.6141 32.2721C88.1783 31.2964 87.4945 30.6929 87.0077 30.3548C86.1166 29.7359 85.1448 29.4983 84.6847 29.3968C84.1188 29.2721 83.5636 29.2031 83.2086 29.1616C82.6643 29.0979 82.7131 29.1031 82.802 29.1222L81.1258 36.9446C81.4027 37.0039 81.6789 37.0374 81.8058 37.0528C81.9351 37.0685 82.1741 37.0951 82.2796 37.1074C82.5974 37.1446 82.8146 37.1767 82.9623 37.2092C83.0307 37.2243 83.0252 37.2271 82.9686 37.2066C82.9279 37.1919 82.7173 37.1152 82.4441 36.9255C82.1757 36.739 81.6558 36.3097 81.3097 35.5348C80.9239 34.6711 80.9349 33.7839 81.1485 33.0822L88.8019 35.4115ZM81.9639 33.0334C85.8445 34.0035 85.8446 34.0031 85.8447 34.0026C85.8447 34.0025 85.8448 34.002 85.8449 34.0017C85.8451 34.0011 85.8452 34.0005 85.8454 33.9999C85.8457 33.9986 85.846 33.9974 85.8463 33.9961C85.847 33.9935 85.8476 33.9908 85.8483 33.988C85.8497 33.9823 85.8512 33.9763 85.8527 33.9698C85.8559 33.9569 85.8593 33.9423 85.8631 33.9261C85.8707 33.8938 85.8795 33.8547 85.8892 33.8097C85.9082 33.7206 85.9315 33.6035 85.9544 33.4662C85.9965 33.2136 86.0538 32.7964 86.0538 32.3143H78.0538C78.0538 32.2427 78.058 32.1965 78.0596 32.1803C78.0614 32.1619 78.063 32.1526 78.0633 32.151C78.0637 32.1486 78.0645 32.1439 78.0667 32.1334C78.068 32.1278 78.0698 32.1196 78.0724 32.1083C78.0737 32.1026 78.0753 32.0961 78.0771 32.0886C78.078 32.0849 78.079 32.0809 78.08 32.0767C78.0805 32.0746 78.0811 32.0724 78.0816 32.0702C78.0819 32.069 78.0822 32.0679 78.0825 32.0667C78.0826 32.0662 78.0827 32.0656 78.0829 32.065C78.083 32.0647 78.0831 32.0643 78.0831 32.0641C78.0832 32.0637 78.0833 32.0632 81.9639 33.0334ZM86.0538 32.3143C86.0538 29.0166 83.6094 26.898 81.5803 25.8337C79.3816 24.6804 76.5715 24.0895 73.5143 24.0895V32.0895C75.6258 32.0895 77.0854 32.5098 77.8643 32.9183C78.8128 33.4158 78.0538 33.4096 78.0538 32.3143H86.0538ZM73.5143 24.0895C68.1314 24.0895 64.1437 27.1303 61.6777 30.9655C59.2572 34.7301 58.0984 39.4923 58.0984 43.9999H66.0984C66.0984 40.732 66.9621 37.539 68.4068 35.2922C69.806 33.1161 71.5263 32.0895 73.5143 32.0895V24.0895ZM58.0984 43.9999C58.0984 47.8397 59.3691 51.2652 61.9517 53.7161C64.5038 56.1379 67.9199 57.2135 71.4918 57.2135V49.2135C69.4906 49.2135 68.21 48.6261 67.4586 47.9131C66.7378 47.2291 66.0984 46.0478 66.0984 43.9999H58.0984ZM71.4918 57.2135C75.9609 57.2135 79.2001 54.5174 80.8143 52.2575L74.3044 47.6076C73.6714 48.4938 72.5958 49.2135 71.4918 49.2135V57.2135ZM77.5593 53.9325H77.8739V45.9325H77.5593V53.9325ZM74.0449 45.7911C74.1568 44.0944 74.6975 41.0546 75.4934 38.4781C75.8949 37.1785 76.2936 36.2225 76.6156 35.6722C76.7801 35.391 76.8211 35.3967 76.6878 35.5166C76.5584 35.6329 75.9445 36.1345 74.9076 36.1345V28.1345C73.264 28.1345 72.0517 28.9268 71.3387 29.5679C70.6219 30.2125 70.094 30.977 69.7108 31.6319C68.9373 32.9539 68.3247 34.5794 67.8498 36.1169C66.8929 39.2146 66.22 42.8716 66.0622 45.2648L74.0449 45.7911ZM74.9076 36.1345C73.9855 36.1345 73.0289 35.7514 72.3341 35.0041C71.758 34.3844 71.5843 33.7544 71.5311 33.5224C71.4699 33.2552 71.4699 33.0703 71.4702 33.0238C71.4705 32.9598 71.475 32.9193 71.4778 32.8968L79.416 33.8891C79.4532 33.5917 79.5519 32.708 79.329 31.7354C79.214 31.2337 78.9364 30.3565 78.1932 29.557C77.3313 28.6299 76.1443 28.1345 74.9076 28.1345V36.1345ZM71.4798 32.881C71.3658 33.7648 71.1425 34.4033 70.6988 35.0571L77.3186 39.5491C78.5828 37.686 79.1685 35.8076 79.414 33.9048L71.4798 32.881ZM70.644 39.4661C71.5438 40.8659 72.9144 41.4667 73.4173 41.6712C73.7614 41.8112 74.0679 41.9063 74.2881 41.9672C74.4011 41.9985 74.4988 42.0228 74.5764 42.041C74.6154 42.0501 74.6499 42.0578 74.6793 42.0641C74.694 42.0673 74.7075 42.0702 74.7197 42.0727C74.7258 42.074 74.7315 42.0752 74.737 42.0763C74.7397 42.0768 74.7424 42.0774 74.7449 42.0779C74.7462 42.0781 74.7475 42.0784 74.7487 42.0786C74.7493 42.0788 74.7502 42.079 74.7505 42.079C74.7515 42.0792 74.7524 42.0794 75.5368 38.1571C76.3213 34.2347 76.3222 34.2349 76.3231 34.2351C76.3234 34.2351 76.3243 34.2353 76.3248 34.2354C76.326 34.2357 76.3272 34.2359 76.3283 34.2361C76.3306 34.2366 76.3328 34.2371 76.335 34.2375C76.3394 34.2384 76.3435 34.2392 76.3475 34.2401C76.3554 34.2417 76.3625 34.2432 76.3689 34.2446C76.3816 34.2474 76.3916 34.2496 76.3991 34.2514C76.4137 34.2548 76.4205 34.2566 76.4218 34.257C76.4229 34.2573 76.4219 34.2571 76.4208 34.2567C76.4193 34.2562 76.4228 34.2572 76.4316 34.2609C76.4353 34.2623 76.5226 34.2965 76.6568 34.3871C76.7784 34.4692 77.0895 34.6985 77.3734 35.1401L70.644 39.4661ZM71.5554 37.7718C71.5563 37.7623 71.4612 38.3171 71.1771 39.4084C70.9212 40.3911 70.573 41.5771 70.1778 42.7047C69.769 43.8707 69.3674 44.8072 69.0355 45.3845C68.8624 45.6855 68.8097 45.7084 68.913 45.6062C68.9494 45.5703 69.6533 44.8539 70.9525 44.8539V52.8539C72.7573 52.8539 73.9795 51.8467 74.5362 51.2966C75.1599 50.6802 75.6297 49.9653 75.9707 49.3724C76.6668 48.1617 77.2596 46.6853 77.7273 45.3512C78.2084 43.9788 78.6187 42.5776 78.919 41.424C79.1911 40.379 79.4499 39.2484 79.5182 38.5423L71.5554 37.7718ZM70.9525 44.8539C71.5458 44.8539 72.3624 45.0438 73.0721 45.6643C73.705 46.2177 73.9081 46.8163 73.9599 46.9968C74.013 47.1816 73.9902 47.2132 73.9842 46.9726C73.9788 46.7531 73.9893 46.4074 74.0365 45.8968L66.0706 45.1592C65.9532 46.4276 65.8975 47.9056 66.2708 49.2053C66.4743 49.9139 66.8937 50.8889 67.8062 51.6867C68.7953 52.5516 69.9546 52.8539 70.9525 52.8539V44.8539ZM109.199 37.8424L105.199 37.802L105.199 37.8097L105.199 37.8173L109.199 37.8424ZM95.9852 32.6289L92.0335 32.009L99.2108 34.9943L95.9852 32.6289ZM96.3448 30.3367L92.4093 29.6211L92.4006 29.6689L92.3931 29.7168L96.3448 30.3367ZM87.266 43.5055L91.1667 44.391L91.2443 44.0491L91.2613 43.6988L87.266 43.5055ZM84.4345 60.8541L85.8842 57.1261L85.7605 57.0779L85.6338 57.0381L84.4345 60.8541ZM91.1312 60.9889L95.0118 61.9591L95.0593 61.769L95.088 61.5751L91.1312 60.9889ZM92.4795 51.5955L95.5424 49.0227L90.1549 42.6091L88.5533 50.8307L92.4795 51.5955ZM95.0863 43.6852L91.1091 43.2591L91.1057 43.2911L91.1028 43.3231L95.0863 43.6852ZM95.5358 41.1683L98.3642 38.3399L93.3687 33.3444L91.6552 40.1982L95.5358 41.1683ZM96.5695 41.483L100.45 42.4531L100.462 42.4062L100.472 42.3591L96.5695 41.483ZM102.277 36.3593L106.258 36.7496L106.262 36.7139L106.265 36.6783L102.277 36.3593ZM97.4235 57.4832C102.715 57.4832 106.733 54.2822 109.246 50.5954C111.761 46.9055 113.172 42.2162 113.199 37.8676L105.199 37.8173C105.181 40.6149 104.233 43.746 102.635 46.0899C101.035 48.4369 99.1878 49.4832 97.4235 49.4832V57.4832ZM113.199 37.8828C113.259 31.8814 109.166 25.1232 101.289 25.1232V33.1232C102.568 33.1232 103.449 33.6238 104.076 34.376C104.761 35.1973 105.213 36.4282 105.199 37.802L113.199 37.8828ZM101.289 25.1232C97.2011 25.1232 94.4059 28.0185 92.7596 30.2634L99.2108 34.9943C99.8048 34.1844 100.32 33.6717 100.727 33.3837C101.103 33.1182 101.267 33.1232 101.289 33.1232V25.1232ZM99.9369 33.2487L100.296 30.9566L92.3931 29.7168L92.0335 32.009L99.9369 33.2487ZM100.28 31.0522C100.553 29.553 99.9261 28.4417 99.6479 28.0219C99.3315 27.5443 98.9803 27.2232 98.7879 27.059C98.3839 26.7143 97.9568 26.4592 97.6689 26.2984C97.0443 25.9497 96.295 25.6195 95.5842 25.3436C94.8559 25.061 94.0498 24.7896 93.2766 24.5828C92.5876 24.3985 91.6174 24.1793 90.6818 24.1793V32.1793C90.5607 32.1793 90.5486 32.1669 90.6892 32.1916C90.8108 32.2129 90.9853 32.2511 91.2092 32.311C91.6593 32.4315 92.1875 32.6067 92.6896 32.8016C93.2091 33.0032 93.5863 33.1815 93.7693 33.2836C93.8851 33.3483 93.7821 33.3042 93.5957 33.1451C93.512 33.0737 93.2429 32.839 92.9786 32.4401C92.7526 32.0989 92.1479 31.0586 92.4093 29.6211L100.28 31.0522ZM90.6818 24.1793C88.6281 24.1793 87.3684 25.4748 86.8491 26.134C86.2757 26.8618 85.8983 27.6837 85.643 28.3395C85.1158 29.6941 84.7206 31.3798 84.4167 33.0264C83.7976 36.3802 83.4117 40.3965 83.2706 43.3121L91.2613 43.6988C91.3899 41.0413 91.7456 37.3945 92.2838 34.4786C92.5585 32.9903 92.846 31.8894 93.0983 31.2411C93.2328 30.8955 93.2693 30.912 93.1333 31.0846C93.0513 31.1887 92.2523 32.1793 90.6818 32.1793V24.1793ZM83.3652 42.6199C82.4753 46.5399 81.3044 51.0639 80.6352 54.3031C80.2959 55.9454 80.0111 57.5856 79.9517 58.9273C79.9234 59.5667 79.9278 60.4466 80.1583 61.3241C80.3669 62.118 81.0747 63.9911 83.2351 64.6701L85.6338 57.0381C87.401 57.5935 87.8433 59.0915 87.8958 59.2914C87.9702 59.5748 87.9279 59.6415 87.9439 59.2809C87.973 58.6225 88.1404 57.5155 88.4697 55.9217C89.1376 52.6889 90.169 48.7857 91.1667 44.391L83.3652 42.6199ZM82.9847 64.5821C83.5561 64.8043 84.7943 65.2033 85.8914 65.5274C86.462 65.6959 87.062 65.8642 87.5861 65.9942C87.8459 66.0587 88.1223 66.1225 88.3857 66.1727C88.5731 66.2084 89.0223 66.2923 89.5132 66.2923V58.2923C89.8355 58.2923 90.0249 58.3411 89.8835 58.3142C89.8181 58.3017 89.6966 58.2753 89.5119 58.2295C89.147 58.139 88.6711 58.0067 88.1574 57.855C87.0859 57.5386 86.1218 57.2184 85.8842 57.1261L82.9847 64.5821ZM89.5132 66.2923C89.7894 66.2923 91.11 66.3344 92.4222 65.5773C93.9259 64.7098 94.6788 63.2909 95.0118 61.9591L87.2506 60.0188C87.269 59.9454 87.505 59.1782 88.4244 58.6478C89.1524 58.2278 89.8213 58.2923 89.5132 58.2923V66.2923ZM95.088 61.5751C95.3176 60.0256 95.748 55.7368 96.4057 52.3603L88.5533 50.8307C87.8628 54.3757 87.3044 59.5253 87.1744 60.4027L95.088 61.5751ZM89.4167 54.1683C91.2818 56.3886 94.0008 57.4832 97.4235 57.4832V49.4832C96.5635 49.4832 96.1033 49.3522 95.8872 49.2631C95.7002 49.1859 95.6147 49.1089 95.5424 49.0227L89.4167 54.1683ZM99.0636 44.1114C99.1129 43.6512 99.2 43.1543 99.2821 42.7483C99.322 42.5515 99.3579 42.3892 99.3831 42.2797C99.3956 42.2252 99.4052 42.1846 99.4111 42.1601C99.4141 42.1479 99.416 42.1398 99.417 42.1361C99.4174 42.1342 99.4176 42.1335 99.4175 42.1338C99.4175 42.134 99.4173 42.1345 99.4171 42.1353C99.417 42.1357 99.4169 42.1361 99.4168 42.1367C99.4167 42.1369 99.4167 42.1372 99.4166 42.1375C99.4165 42.1377 99.4165 42.1379 99.4165 42.138C99.4164 42.1382 99.4163 42.1385 95.5358 41.1683C91.6552 40.1982 91.6551 40.1985 91.6551 40.1987C91.6551 40.1988 91.655 40.1991 91.6549 40.1993C91.6548 40.1997 91.6547 40.2001 91.6546 40.2005C91.6544 40.2013 91.6542 40.2022 91.654 40.2032C91.6535 40.2052 91.6529 40.2075 91.6522 40.2101C91.6509 40.2154 91.6493 40.2218 91.6475 40.2295C91.6437 40.2448 91.6388 40.265 91.6329 40.2896C91.621 40.3389 91.605 40.4064 91.5859 40.4896C91.5479 40.6554 91.4968 40.8863 91.4411 41.1614C91.3322 41.6993 91.1946 42.4608 91.1091 43.2591L99.0636 44.1114ZM92.7073 43.9968C93.2223 44.5117 93.7851 44.7981 93.9485 44.8815C94.2247 45.0224 94.5202 45.1467 94.8106 45.2459C95.05 45.3276 95.5203 45.4747 96.0848 45.5213C96.3308 45.5417 96.958 45.579 97.6977 45.351C98.535 45.0929 99.9896 44.2949 100.45 42.4531L92.6889 40.5128C93.1381 38.716 94.5576 37.9474 95.3414 37.7059C96.0276 37.4944 96.5828 37.5352 96.7438 37.5485C97.1383 37.5811 97.3867 37.672 97.3958 37.6751C97.4559 37.6956 97.5126 37.7188 97.5851 37.7558C97.6229 37.7751 97.6992 37.8155 97.8002 37.8808C97.8735 37.9281 98.1036 38.0793 98.3642 38.3399L92.7073 43.9968ZM100.472 42.3591C100.67 41.4795 101.257 39.4803 102.008 37.7697C102.39 36.8993 102.726 36.3086 102.958 36.0011C103.074 35.8488 103.06 35.9059 102.889 36.0293C102.715 36.1555 102.173 36.494 101.334 36.494V28.494C99.9665 28.494 98.8945 29.0447 98.1962 29.5506C97.5015 30.0537 96.9687 30.6583 96.5768 31.1766C95.7952 32.2105 95.1651 33.4541 94.6819 34.5555C93.702 36.7888 92.9636 39.2841 92.6666 40.6068L100.472 42.3591ZM101.334 36.494C100.848 36.494 100.265 36.3692 99.7067 36.0282C99.1678 35.6992 98.8409 35.2852 98.6605 34.9811C98.3586 34.4724 98.375 34.1244 98.3919 34.3307C98.4019 34.4533 98.4021 34.6737 98.3793 35.0112C98.3686 35.1694 98.3546 35.3303 98.3387 35.5027C98.3248 35.6534 98.3041 35.8672 98.2902 36.0403L106.265 36.6783C106.285 36.4207 106.467 34.9303 106.365 33.6798C106.315 33.0603 106.168 31.9567 105.541 30.8988C104.755 29.5746 103.287 28.494 101.334 28.494V36.494ZM98.2966 35.969C98.2057 36.8959 97.7565 39.7896 96.9532 42.365C96.545 43.6738 96.1236 44.6404 95.7613 45.199C95.2742 45.9501 95.5589 45.0337 96.8392 45.0337V53.0337C99.8498 53.0337 101.651 50.8195 102.473 49.5522C103.42 48.0925 104.1 46.3203 104.59 44.747C105.585 41.5583 106.125 38.1148 106.258 36.7496L98.2966 35.969ZM96.8392 45.0337C97.2056 45.0337 97.6009 45.1109 97.9811 45.2836C98.3538 45.4528 98.6262 45.6745 98.8084 45.8673C99.1384 46.2164 99.1817 46.4739 99.1404 46.3347C99.1092 46.2294 99.0555 45.9765 99.0316 45.549C99.0084 45.1344 99.0172 44.6275 99.0699 44.0474L91.1028 43.3231C90.9455 45.0528 90.9811 46.9584 91.4705 48.6089C91.8987 50.0533 93.3177 53.0337 96.8392 53.0337V45.0337ZM125.241 43.91L122.888 40.675L121.581 41.6261L121.301 43.2188L125.241 43.91ZM116.342 42.6965L119.92 40.9076L116.342 33.7522L112.764 40.9076L116.342 42.6965ZM116.926 39.7301L113.001 38.9605L112.852 39.7191L112.997 40.4786L116.926 39.7301ZM119.533 32.3592L123.156 34.055L123.16 34.0452L123.165 34.0354L119.533 32.3592ZM120.612 33.4828L116.613 33.3747L116.613 33.3994L116.612 33.424L120.612 33.4828ZM104.297 46.7415C104.297 51.0404 106.485 54.3639 109.379 56.4813C112.195 58.5414 115.755 59.5506 119.129 59.5506V51.5506C117.243 51.5506 115.387 50.9643 114.102 50.0244C112.896 49.1417 112.297 48.0607 112.297 46.7415H104.297ZM119.129 59.5506C129.159 59.5506 134.23 51.913 134.23 46.2021H126.23C126.23 47.7723 124.469 51.5506 119.129 51.5506V59.5506ZM134.23 46.2021C134.23 43.803 133.007 41.9102 131.252 40.8026C129.7 39.823 127.92 39.5504 126.455 39.5504V47.5504C126.719 47.5504 126.904 47.577 127.012 47.602C127.125 47.6282 127.095 47.6388 126.983 47.5679C126.857 47.4887 126.64 47.3124 126.462 47.0028C126.278 46.6826 126.23 46.382 126.23 46.2021H134.23ZM126.455 39.5504C125.432 39.5504 124.595 39.804 124.026 40.0436C123.736 40.1657 123.495 40.2927 123.309 40.4017C123.215 40.4567 123.133 40.5083 123.063 40.5543C123.028 40.5773 122.996 40.599 122.967 40.6192C122.952 40.6293 122.939 40.639 122.925 40.6483C122.919 40.653 122.913 40.6575 122.906 40.662C122.903 40.6642 122.9 40.6664 122.897 40.6686C122.896 40.6697 122.894 40.6707 122.893 40.6718C122.892 40.6724 122.891 40.6732 122.891 40.6734C122.889 40.6742 122.888 40.675 125.241 43.91C127.594 47.1449 127.593 47.1457 127.592 47.1465C127.591 47.1468 127.59 47.1476 127.589 47.1481C127.588 47.1491 127.586 47.1502 127.585 47.1512C127.582 47.1533 127.579 47.1554 127.576 47.1574C127.571 47.1615 127.565 47.1656 127.559 47.1695C127.548 47.1775 127.537 47.1852 127.527 47.1926C127.505 47.2076 127.484 47.2216 127.464 47.2348C127.424 47.2611 127.386 47.2846 127.35 47.3058C127.279 47.3475 127.207 47.3845 127.13 47.4167C126.988 47.4766 126.758 47.5504 126.455 47.5504V39.5504ZM121.301 43.2188C121.195 43.8249 120.73 45.0449 119.922 46.0489C119.129 47.0346 118.466 47.2809 118.005 47.2809V55.2809C121.769 55.2809 124.499 53.1226 126.155 51.0633C127.797 49.0224 128.838 46.5569 129.181 44.6012L121.301 43.2188ZM118.005 47.2809C117.958 47.2809 118.08 47.2732 118.298 47.3553C118.539 47.446 118.813 47.6157 119.043 47.8742C119.493 48.3798 119.353 48.7181 119.353 48.1348H111.353C111.353 49.7537 111.707 51.665 113.068 53.1932C114.505 54.8082 116.418 55.2809 118.005 55.2809V47.2809ZM119.353 48.1348C119.353 46.9819 119.53 45.9781 119.71 45.2619C119.799 44.9072 119.886 44.6353 119.945 44.4655C119.975 44.3806 119.996 44.3247 120.006 44.3002C120.041 44.2127 120.002 44.3204 119.92 44.4853L112.764 40.9076C112.478 41.4795 111.353 44.3354 111.353 48.1348H119.353ZM112.764 44.4853C113.152 45.2614 115.391 48.8089 120.207 48.8089V40.8089C120.13 40.8089 120.075 40.8019 120.039 40.795C120.002 40.7881 119.975 40.7795 119.954 40.7715C119.914 40.7559 119.875 40.7332 119.836 40.702C119.794 40.6684 119.766 40.6357 119.757 40.6245C119.754 40.6202 119.761 40.6284 119.778 40.6551C119.787 40.6684 119.801 40.6904 119.819 40.722C119.829 40.7379 119.841 40.7593 119.856 40.7859C119.869 40.8097 119.892 40.8519 119.92 40.9076L112.764 44.4853ZM120.207 48.8089C123.631 48.8089 126.281 46.3692 127.82 44.0637C129.497 41.5534 130.589 38.2165 130.589 34.5615H122.589C122.589 36.6594 121.952 38.4462 121.167 39.6214C120.246 41.0013 119.705 40.8089 120.207 40.8089V48.8089ZM130.589 34.5615C130.589 30.5845 128.577 27.739 126.197 26.024C123.961 24.4127 121.282 23.685 119.173 23.685V31.685C119.671 31.685 120.7 31.9235 121.52 32.5145C122.197 33.0018 122.589 33.5945 122.589 34.5615H130.589ZM119.173 23.685C113.417 23.685 109.672 28.2374 107.612 32.3569C105.44 36.7018 104.297 42.0863 104.297 46.7415H112.297C112.297 43.2167 113.199 39.073 114.768 35.9346C116.45 32.5708 118.143 31.685 119.173 31.685V23.685ZM120.852 40.4998C121.208 38.6836 122.216 36.0634 123.156 34.055L115.91 30.6634C114.873 32.8798 113.544 36.1923 113.001 38.9605L120.852 40.4998ZM123.165 34.0354C123.246 33.8591 123.14 34.157 122.785 34.5315C122.576 34.7522 122.23 35.0541 121.727 35.2908C121.195 35.5406 120.652 35.6401 120.162 35.6401V27.6401C118.79 27.6401 117.698 28.2694 116.978 29.0296C116.421 29.6176 116.09 30.275 115.901 30.683L123.165 34.0354ZM120.162 35.6401C119.641 35.6401 118.754 35.5199 117.908 34.875C117.139 34.2883 116.829 33.5879 116.719 33.2779C116.609 32.9672 116.602 32.779 116.608 32.8504C116.612 32.8988 116.622 33.0575 116.613 33.3747L124.61 33.5909C124.634 32.7017 124.613 31.5987 124.257 30.5978C124.057 30.035 123.641 29.1857 122.759 28.5133C121.801 27.7828 120.796 27.6401 120.162 27.6401V35.6401ZM116.612 33.424C116.596 34.5504 116.359 35.9307 116.017 36.9326C115.84 37.4503 115.712 37.6399 115.729 37.6169C115.742 37.5981 115.884 37.4024 116.196 37.189C116.533 36.9585 117.126 36.674 117.915 36.674V44.674C120.24 44.674 121.63 43.098 122.183 42.3433C122.838 41.4495 123.282 40.4144 123.588 39.5164C124.213 37.6867 124.583 35.4715 124.611 33.5416L116.612 33.424ZM117.915 36.674C118.546 36.674 119.159 36.8738 119.663 37.2148C120.122 37.5261 120.385 37.8812 120.518 38.0966C120.654 38.3152 120.724 38.5005 120.762 38.6127C120.783 38.6757 120.8 38.7362 120.815 38.7943C120.822 38.8238 120.829 38.854 120.836 38.8848C120.839 38.9003 120.843 38.9161 120.846 38.9322C120.847 38.9402 120.849 38.9484 120.851 38.9566C120.852 38.9607 120.852 38.9649 120.853 38.9691C120.854 38.9711 120.854 38.9732 120.854 38.9753C120.855 38.9764 120.855 38.978 120.855 38.9785C120.855 38.9801 120.856 38.9817 116.926 39.7301C112.997 40.4786 112.997 40.4802 112.998 40.4818C112.998 40.4823 112.998 40.4839 112.998 40.485C112.999 40.4871 112.999 40.4893 112.999 40.4915C113 40.4959 113.001 40.5004 113.002 40.505C113.004 40.5142 113.006 40.5237 113.008 40.5335C113.012 40.5532 113.016 40.5742 113.021 40.5966C113.031 40.6413 113.043 40.6917 113.057 40.747C113.084 40.8568 113.122 40.991 113.172 41.1425C113.269 41.4317 113.435 41.853 113.716 42.3075C114.29 43.234 115.635 44.674 117.915 44.674V36.674ZM135.636 37.4379L131.663 36.9706L131.335 39.7597L133.847 41.0157L135.636 37.4379ZM136.849 30.2019L140.815 30.7192L141.181 27.9153L138.66 26.6352L136.849 30.2019ZM128.984 36.9435L132.953 37.4397L132.957 37.4038L132.961 37.3678L128.984 36.9435ZM135.501 52.8989L136.95 56.6269L139.344 55.696L139.494 53.1318L135.501 52.8989ZM139.321 38.2469L143.32 38.1619L135.743 36.4581L139.321 38.2469ZM142.692 37.9773L146.678 38.3095L146.681 38.2701L146.684 38.2307L142.692 37.9773ZM145.254 30.6513L149.246 30.8933L149.247 30.8862L145.254 30.6513ZM142.827 28.4041L142.014 32.3206L142.027 32.3233L142.827 28.4041ZM138.512 29.7075L134.73 28.4035L134.719 28.4372L134.708 28.4711L138.512 29.7075ZM135.905 37.5728L134.116 41.1505L137.854 43.0194L139.558 39.2034L135.905 37.5728ZM139.608 37.9053C139.725 36.9141 139.935 35.7517 140.174 34.4696C140.401 33.2569 140.663 31.889 140.815 30.7192L132.883 29.6845C132.766 30.5822 132.556 31.6862 132.31 33.0016C132.078 34.2477 131.816 35.6696 131.663 36.9706L139.608 37.9053ZM136.849 30.2019C138.66 26.6352 138.659 26.635 138.659 26.6347C138.659 26.6346 138.658 26.6344 138.658 26.6342C138.657 26.6339 138.657 26.6335 138.656 26.6332C138.654 26.6324 138.653 26.6315 138.651 26.6306C138.647 26.6287 138.642 26.6264 138.637 26.6238C138.627 26.6185 138.613 26.6119 138.597 26.6039C138.565 26.588 138.522 26.5667 138.469 26.5409C138.363 26.4895 138.217 26.4193 138.037 26.3368C137.682 26.173 137.183 25.9535 136.611 25.7314C135.635 25.3524 133.842 24.7187 132.13 24.7187V32.7187C132.09 32.7187 132.234 32.72 132.605 32.8179C132.941 32.9068 133.326 33.0378 133.716 33.1891C134.099 33.3378 134.443 33.4891 134.691 33.6034C134.814 33.6599 134.91 33.7057 134.971 33.7353C135.001 33.7501 135.022 33.7607 135.034 33.7665C135.04 33.7694 135.043 33.7711 135.044 33.7714C135.044 33.7716 135.044 33.7715 135.043 33.771C135.043 33.7708 135.042 33.7704 135.041 33.77C135.041 33.7698 135.04 33.7696 135.04 33.7693C135.04 33.7692 135.039 33.769 135.039 33.7689C135.039 33.7687 135.038 33.7685 136.849 30.2019ZM132.13 24.7187C129.913 24.7187 128.372 25.9572 127.49 27.1476C126.68 28.2395 126.233 29.5058 125.958 30.5067C125.403 32.5266 125.173 34.9589 125.006 36.5193L132.961 37.3678C133.154 35.5573 133.328 33.8772 133.672 32.6274C133.846 31.9935 133.973 31.8356 133.916 31.912C133.786 32.087 133.178 32.7187 132.13 32.7187V24.7187ZM125.015 36.4474C124.499 40.5696 124.103 43.7044 123.837 45.9645C123.584 48.1136 123.411 49.7556 123.411 50.6966H131.411C131.411 50.3342 131.507 49.2346 131.782 46.9004C132.044 44.6773 132.434 41.5873 132.953 37.4397L125.015 36.4474ZM123.411 50.6966C123.411 51.8636 123.883 52.7267 124.217 53.1992C124.557 53.6812 124.935 54.0185 125.196 54.2271C125.719 54.6441 126.287 54.9474 126.723 55.1556C127.636 55.5919 128.735 55.9687 129.778 56.2586C130.836 56.5525 132 56.802 133.079 56.931C133.617 56.9953 134.204 57.0382 134.784 57.0243C135.3 57.0121 136.115 56.9517 136.95 56.6269L134.051 49.1709C134.482 49.0034 134.741 49.0231 134.593 49.0266C134.51 49.0286 134.325 49.0229 134.029 48.9876C133.439 48.9171 132.682 48.7621 131.919 48.5504C131.143 48.3347 130.522 48.1047 130.172 47.9371C129.975 47.8433 130.025 47.8453 130.187 47.9748C130.268 48.0395 130.506 48.2366 130.751 48.5832C130.989 48.9204 131.411 49.6532 131.411 50.6966H123.411ZM139.494 53.1318C139.772 48.3647 141.887 42.0599 142.899 40.0358L135.743 36.4581C134.328 39.288 131.859 46.6464 131.507 52.666L139.494 53.1318ZM135.322 38.332C135.35 39.6446 135.561 41.8639 136.869 43.848C138.376 46.1332 140.895 47.4605 144.13 47.4605V39.4605C143.616 39.4605 143.448 39.3652 143.467 39.3747C143.472 39.3772 143.493 39.3895 143.518 39.4122C143.542 39.4336 143.551 39.4483 143.548 39.4438C143.536 39.4258 143.474 39.3192 143.417 39.0673C143.36 38.8175 143.327 38.5105 143.32 38.1619L135.322 38.332ZM144.13 47.4605C147.263 47.4605 149.779 45.9533 151.427 44.0532C153.026 42.2099 154.018 39.77 154.018 37.3481H146.018C146.018 37.6678 145.841 38.284 145.384 38.8116C144.975 39.2823 144.548 39.4605 144.13 39.4605V47.4605ZM154.018 37.3481C154.018 35.9959 153.608 34.7091 152.771 33.6516C151.979 32.6506 151.001 32.1024 150.239 31.8016C149.479 31.5014 148.772 31.3824 148.288 31.3299C148.034 31.3024 147.813 31.2902 147.64 31.2848C147.553 31.282 147.478 31.281 147.419 31.2807C147.373 31.2804 147.303 31.2806 147.321 31.2806V39.2806C147.39 39.2806 147.398 39.2803 147.425 39.2833C147.471 39.2883 147.422 39.2901 147.302 39.2428C147.18 39.1947 146.826 39.0314 146.498 38.6161C146.124 38.1443 146.018 37.644 146.018 37.3481H154.018ZM147.321 31.2806C146.421 31.2806 145.738 31.5789 145.346 31.7998C144.95 32.0231 144.674 32.2676 144.519 32.418C144.217 32.7108 144.026 32.9878 143.954 33.0954C143.792 33.3365 143.679 33.5597 143.64 33.6365C143.551 33.8123 143.434 34.0656 143.38 34.1803C143.223 34.5129 143.069 34.8229 142.897 35.1003C142.71 35.3997 142.607 35.4885 142.63 35.4694C142.681 35.4271 143.053 35.1458 143.681 35.1458V43.1458C145.454 43.1458 146.832 42.3814 147.752 41.6144C148.645 40.8706 149.275 39.993 149.689 39.3261C150.118 38.6372 150.433 37.981 150.618 37.5887C150.69 37.4347 150.679 37.458 150.733 37.3433C150.765 37.2744 150.775 37.2546 150.774 37.2568C150.773 37.2598 150.76 37.2854 150.738 37.3247C150.719 37.3584 150.671 37.4435 150.597 37.5526C150.544 37.6319 150.371 37.8872 150.084 38.1654C149.936 38.3084 149.667 38.5474 149.278 38.767C148.893 38.9842 148.215 39.2806 147.321 39.2806V31.2806ZM143.681 35.1458C144.729 35.1458 145.609 35.6872 146.117 36.3638C146.556 36.95 146.734 37.6373 146.678 38.3095L138.706 37.6451C138.605 38.8566 138.94 40.1281 139.717 41.1638C140.561 42.2898 141.958 43.1458 143.681 43.1458V35.1458ZM146.684 38.2307C146.72 37.6565 147.012 36.8182 147.627 35.5088C147.872 34.9872 148.251 34.2168 148.515 33.605C148.752 33.0533 149.178 32.0235 149.246 30.8933L141.261 30.4093C141.285 30.0207 141.39 29.9235 141.167 30.442C140.969 30.9004 140.748 31.3379 140.386 32.1085C139.787 33.3834 138.843 35.4666 138.7 37.7238L146.684 38.2307ZM149.247 30.8862C149.304 29.916 149.173 28.3301 147.973 26.8698C146.836 25.4868 145.222 24.8105 143.626 24.4849L142.027 32.3233C142.633 32.4471 142.255 32.5124 141.793 31.9496C141.558 31.6644 141.405 31.3359 141.325 31.0203C141.251 30.7269 141.255 30.5048 141.261 30.4164L149.247 30.8862ZM143.64 24.4875C142.106 24.1692 140.385 24.0571 138.76 24.5611C136.949 25.1227 135.413 26.4237 134.73 28.4035L142.293 31.0114C142.203 31.2733 142.029 31.5683 141.76 31.8183C141.499 32.0603 141.252 32.1642 141.129 32.2021C141.019 32.2364 141.02 32.2148 141.187 32.2158C141.351 32.2168 141.622 32.2392 142.014 32.3206L143.64 24.4875ZM134.708 28.4711C133.979 30.715 133.267 33.6705 132.253 35.9422L139.558 39.2034C140.791 36.4412 141.877 32.2955 142.316 30.9438L134.708 28.4711ZM137.694 33.9951L137.424 33.8602L133.847 41.0157L134.116 41.1505L137.694 33.9951ZM149.927 43.1459L149.346 39.1883L149.332 39.1903L149.319 39.1924L149.927 43.1459ZM165.433 41.9324V37.9324H165.403L165.373 37.9328L165.433 41.9324ZM163.455 35.8649L163.655 31.8698L163.642 31.8693L163.455 35.8649ZM146.781 37.6177L145.835 33.731L145.806 33.7382L145.777 33.7457L146.781 37.6177ZM150.508 47.1035C155.235 46.4095 159.6 46.0192 165.492 45.932L165.373 37.9328C159.13 38.0253 154.416 38.444 149.346 39.1883L150.508 47.1035ZM165.433 45.9324C166.799 45.9324 168.334 45.3482 169.304 43.8956C170.089 42.7208 170.141 41.4957 170.12 40.8615C170.078 39.5425 169.613 38.2368 169.239 37.3547C168.825 36.377 168.289 35.3855 167.74 34.5794C167.472 34.187 167.127 33.7284 166.72 33.3182C166.518 33.1153 166.216 32.8377 165.823 32.5831C165.487 32.3656 164.721 31.9232 163.655 31.8699L163.255 39.8599C162.302 39.8122 161.666 39.4221 161.474 39.2977C161.224 39.1363 161.08 38.9927 161.047 38.9588C160.975 38.8865 161.007 38.9058 161.129 39.0844C161.357 39.4202 161.647 39.9427 161.873 40.4763C161.983 40.7354 162.058 40.9498 162.101 41.1046C162.151 41.2828 162.129 41.2736 162.124 41.1198C162.122 41.0509 162.087 40.2968 162.652 39.4515C162.969 38.9778 163.426 38.5536 164.005 38.2708C164.563 37.9982 165.077 37.9324 165.433 37.9324V45.9324ZM163.642 31.8693C161.908 31.788 158.754 31.9467 155.531 32.2537C152.279 32.5634 148.607 33.0568 145.835 33.731L147.726 41.5044C149.943 40.9651 153.17 40.5147 156.289 40.2177C159.437 39.9178 162.126 39.807 163.268 39.8605L163.642 31.8693ZM145.777 33.7457C143.709 34.2817 142.849 35.9717 142.598 37.0571C142.378 38.0105 142.488 38.8737 142.579 39.3703C142.776 40.4519 143.225 41.5512 143.696 42.4532C144.175 43.3693 144.841 44.3967 145.67 45.2413C146.084 45.6633 146.652 46.1569 147.374 46.5373C148.095 46.9174 149.206 47.3038 150.535 47.0994L149.319 39.1924C150.209 39.0554 150.856 39.3295 151.104 39.4601C151.352 39.591 151.438 39.698 151.381 39.6389C151.265 39.5215 151.027 39.209 150.787 38.7487C150.677 38.5379 150.589 38.3391 150.527 38.1734C150.461 37.9969 150.446 37.9167 150.449 37.934C150.451 37.9457 150.465 38.0221 150.469 38.1506C150.472 38.2691 150.47 38.5228 150.393 38.8562C150.317 39.1868 150.135 39.7288 149.688 40.2738C149.202 40.8654 148.534 41.2954 147.785 41.4897L145.777 33.7457ZM185.153 43.91L182.8 40.675L181.492 41.6261L181.213 43.2188L185.153 43.91ZM176.254 42.6965L179.831 40.9076L176.254 33.7522L172.676 40.9076L176.254 42.6965ZM176.838 39.7301L172.913 38.9605L172.764 39.7191L172.908 40.4786L176.838 39.7301ZM179.445 32.3592L183.067 34.055L183.072 34.0452L183.076 34.0354L179.445 32.3592ZM180.523 33.4828L176.525 33.3747L176.524 33.3994L176.524 33.424L180.523 33.4828ZM164.208 46.7415C164.208 51.0404 166.396 54.3639 169.291 56.4813C172.107 58.5414 175.667 59.5506 179.04 59.5506V51.5506C177.155 51.5506 175.299 50.9643 174.014 50.0244C172.807 49.1417 172.208 48.0607 172.208 46.7415H164.208ZM179.04 59.5506C189.071 59.5506 194.141 51.913 194.141 46.2021H186.141C186.141 47.7723 184.38 51.5506 179.04 51.5506V59.5506ZM194.141 46.2021C194.141 43.803 192.919 41.9102 191.164 40.8026C189.612 39.823 187.831 39.5504 186.366 39.5504V47.5504C186.63 47.5504 186.816 47.577 186.924 47.602C187.037 47.6282 187.007 47.6388 186.894 47.5679C186.769 47.4887 186.552 47.3124 186.374 47.0028C186.19 46.6826 186.141 46.382 186.141 46.2021H194.141ZM186.366 39.5504C185.344 39.5504 184.507 39.804 183.937 40.0436C183.647 40.1657 183.407 40.2927 183.22 40.4017C183.126 40.4567 183.044 40.5083 182.975 40.5543C182.94 40.5773 182.908 40.599 182.878 40.6192C182.864 40.6293 182.85 40.639 182.837 40.6483C182.83 40.653 182.824 40.6575 182.818 40.662C182.815 40.6642 182.812 40.6664 182.809 40.6686C182.807 40.6697 182.806 40.6707 182.804 40.6718C182.804 40.6724 182.802 40.6732 182.802 40.6734C182.801 40.6742 182.8 40.675 185.153 43.91C187.505 47.1449 187.504 47.1457 187.503 47.1465C187.503 47.1468 187.502 47.1476 187.501 47.1481C187.499 47.1491 187.498 47.1502 187.497 47.1512C187.494 47.1533 187.491 47.1554 187.488 47.1574C187.482 47.1615 187.477 47.1656 187.471 47.1695C187.46 47.1775 187.449 47.1852 187.438 47.1926C187.417 47.2076 187.396 47.2216 187.376 47.2348C187.336 47.2611 187.298 47.2846 187.262 47.3058C187.191 47.3475 187.118 47.3845 187.042 47.4167C186.9 47.4766 186.669 47.5504 186.366 47.5504V39.5504ZM181.213 43.2188C181.106 43.8249 180.641 45.0449 179.834 46.0489C179.041 47.0346 178.377 47.2809 177.916 47.2809V55.2809C181.681 55.2809 184.41 53.1226 186.067 51.0633C187.709 49.0224 188.749 46.5569 189.092 44.6012L181.213 43.2188ZM177.916 47.2809C177.87 47.2809 177.991 47.2732 178.209 47.3553C178.45 47.446 178.725 47.6157 178.955 47.8742C179.405 48.3798 179.265 48.7181 179.265 48.1348H171.265C171.265 49.7537 171.619 51.665 172.979 53.1932C174.417 54.8082 176.329 55.2809 177.916 55.2809V47.2809ZM179.265 48.1348C179.265 46.9819 179.441 45.9781 179.622 45.2619C179.711 44.9072 179.798 44.6353 179.857 44.4655C179.886 44.3806 179.908 44.3247 179.918 44.3002C179.952 44.2127 179.914 44.3204 179.831 44.4853L172.676 40.9076C172.39 41.4795 171.265 44.3354 171.265 48.1348H179.265ZM172.676 44.4853C173.064 45.2614 175.303 48.8089 180.119 48.8089V40.8089C180.042 40.8089 179.987 40.8019 179.95 40.795C179.914 40.7881 179.886 40.7795 179.866 40.7715C179.825 40.7559 179.787 40.7332 179.748 40.702C179.706 40.6684 179.678 40.6357 179.669 40.6245C179.665 40.6202 179.672 40.6284 179.69 40.6551C179.698 40.6684 179.712 40.6904 179.731 40.722C179.74 40.7379 179.753 40.7593 179.767 40.7859C179.78 40.8097 179.803 40.8519 179.831 40.9076L172.676 44.4853ZM180.119 48.8089C183.542 48.8089 186.193 46.3692 187.732 44.0637C189.408 41.5534 190.501 38.2165 190.501 34.5615H182.501C182.501 36.6594 181.863 38.4462 181.079 39.6214C180.157 41.0013 179.617 40.8089 180.119 40.8089V48.8089ZM190.501 34.5615C190.501 30.5845 188.489 27.739 186.109 26.024C183.873 24.4127 181.194 23.685 179.085 23.685V31.685C179.583 31.685 180.612 31.9235 181.432 32.5145C182.108 33.0018 182.501 33.5945 182.501 34.5615H190.501ZM179.085 23.685C173.328 23.685 169.584 28.2374 167.524 32.3569C165.352 36.7018 164.208 42.0863 164.208 46.7415H172.208C172.208 43.2167 173.11 39.073 174.679 35.9346C176.361 32.5708 178.055 31.685 179.085 31.685V23.685ZM180.763 40.4998C181.119 38.6836 182.127 36.0634 183.067 34.055L175.822 30.6634C174.784 32.8798 173.455 36.1923 172.913 38.9605L180.763 40.4998ZM183.076 34.0354C183.158 33.8591 183.052 34.157 182.697 34.5315C182.488 34.7522 182.142 35.0541 181.638 35.2908C181.106 35.5406 180.564 35.6401 180.074 35.6401V27.6401C178.702 27.6401 177.609 28.2694 176.889 29.0296C176.332 29.6176 176.001 30.275 175.813 30.683L183.076 34.0354ZM180.074 35.6401C179.552 35.6401 178.666 35.5199 177.82 34.875C177.05 34.2883 176.741 33.5879 176.631 33.2779C176.52 32.9672 176.513 32.779 176.52 32.8504C176.524 32.8988 176.533 33.0575 176.525 33.3747L184.522 33.5909C184.546 32.7017 184.524 31.5987 184.169 30.5978C183.968 30.035 183.552 29.1857 182.671 28.5133C181.712 27.7828 180.708 27.6401 180.074 27.6401V35.6401ZM176.524 33.424C176.507 34.5504 176.271 35.9307 175.929 36.9326C175.752 37.4503 175.623 37.6399 175.64 37.6169C175.654 37.5981 175.796 37.4024 176.108 37.189C176.445 36.9585 177.037 36.674 177.827 36.674V44.674C180.151 44.674 181.542 43.098 182.095 42.3433C182.749 41.4495 183.193 40.4144 183.5 39.5164C184.124 37.6867 184.494 35.4715 184.523 33.5416L176.524 33.424ZM177.827 36.674C178.457 36.674 179.071 36.8738 179.574 37.2148C180.034 37.5261 180.297 37.8812 180.43 38.0966C180.565 38.3152 180.636 38.5005 180.673 38.6127C180.694 38.6757 180.711 38.7362 180.726 38.7943C180.734 38.8238 180.741 38.854 180.747 38.8848C180.751 38.9003 180.754 38.9161 180.757 38.9322C180.759 38.9402 180.761 38.9484 180.762 38.9566C180.763 38.9607 180.764 38.9649 180.765 38.9691C180.765 38.9711 180.766 38.9732 180.766 38.9753C180.766 38.9764 180.766 38.978 180.767 38.9785C180.767 38.9801 180.767 38.9817 176.838 39.7301C172.908 40.4786 172.909 40.4802 172.909 40.4818C172.909 40.4823 172.909 40.4839 172.91 40.485C172.91 40.4871 172.911 40.4893 172.911 40.4915C172.912 40.4959 172.913 40.5004 172.914 40.505C172.915 40.5142 172.917 40.5237 172.919 40.5335C172.923 40.5532 172.928 40.5742 172.933 40.5966C172.942 40.6413 172.954 40.6917 172.968 40.747C172.996 40.8568 173.033 40.991 173.084 41.1425C173.18 41.4317 173.346 41.853 173.628 42.3075C174.201 43.234 175.547 44.674 177.827 44.674V36.674ZM202.783 49.2584H206.783V45.2584H202.783V49.2584ZM212.806 42.9661L211.869 39.0774L209.152 39.732L208.832 42.5076L212.806 42.9661ZM213.12 21.0781L209.17 20.4496L209.167 20.4664L209.165 20.4833L213.12 21.0781ZM205.03 21.8422L208.964 22.5668L208.968 22.5472L208.971 22.5275L205.03 21.8422ZM203.457 30.6962L200.597 33.492L205.874 38.8923L207.377 31.4925L203.457 30.6962ZM202.603 49.2584V45.2584H200.104L199.008 47.5047L202.603 49.2584ZM194.603 47.101L190.612 46.8393L190.603 46.97V47.101H194.603ZM200.895 33.9772L196.936 33.4115L196.906 33.622L196.898 33.8344L200.895 33.9772ZM199.727 37.8424L196.002 36.3848L195.327 38.1088L196.205 39.7388L199.727 37.8424ZM200.761 38.6065L204.755 38.8114L204.946 35.0985L201.257 34.6374L200.761 38.6065ZM198.783 49.2584C198.783 53.1807 202.018 57.2135 207.233 57.2135V49.2135C207.002 49.2135 206.884 49.1727 206.84 49.1548C206.795 49.1359 206.778 49.1193 206.772 49.1134C206.762 49.1033 206.76 49.0962 206.762 49.1012C206.762 49.1017 206.783 49.1494 206.783 49.2584H198.783ZM207.233 57.2135C211.018 57.2135 214.27 55.6024 216.547 53.5328C218.703 51.5726 220.536 48.6685 220.536 45.5729H212.536C212.536 45.5353 212.535 45.7581 212.294 46.2094C212.065 46.6373 211.689 47.1371 211.166 47.6132C210.105 48.5774 208.706 49.2135 207.233 49.2135V57.2135ZM220.536 45.5729C220.536 43.963 220.092 42.3708 218.993 41.0861C217.925 39.8385 216.589 39.2905 215.564 39.0558C214.554 38.8247 213.64 38.845 213.053 38.8946C212.742 38.9208 212.479 38.9591 212.281 38.9935C212.181 39.0108 212.096 39.0275 212.027 39.042C211.992 39.0492 211.962 39.0559 211.935 39.0619C211.922 39.0649 211.91 39.0677 211.899 39.0703C211.893 39.0716 211.888 39.0728 211.883 39.074C211.881 39.0746 211.878 39.0752 211.876 39.0758C211.875 39.0761 211.873 39.0765 211.872 39.0766C211.87 39.077 211.869 39.0774 212.806 42.9661C213.743 46.8548 213.741 46.8552 213.739 46.8556C213.739 46.8558 213.737 46.8562 213.736 46.8564C213.734 46.8569 213.732 46.8574 213.73 46.8579C213.726 46.8589 213.722 46.8598 213.718 46.8607C213.711 46.8625 213.704 46.864 213.698 46.8654C213.685 46.8682 213.676 46.8703 213.668 46.8718C213.654 46.8748 213.649 46.8756 213.651 46.8752C213.657 46.8742 213.685 46.8696 213.725 46.8663C213.837 46.8569 213.855 46.8716 213.778 46.854C213.685 46.8327 213.282 46.7174 212.914 46.2872C212.514 45.82 212.536 45.43 212.536 45.5729H220.536ZM208.832 42.5076C208.734 43.3548 208.462 44.4585 208.113 45.2362C207.934 45.6337 207.832 45.7268 207.895 45.6607C207.96 45.5921 208.527 45.0337 209.57 45.0337V53.0337C211.511 53.0337 212.899 52.009 213.697 51.1679C214.493 50.3292 215.037 49.3437 215.409 48.5164C216.161 46.8447 216.608 44.9146 216.779 43.4246L208.832 42.5076ZM209.57 45.0337C209.892 45.0337 210.377 45.0974 210.902 45.3686C211.442 45.6481 211.829 46.0472 212.074 46.4311C212.484 47.0764 212.401 47.5201 212.401 47.146H204.401C204.401 48.0752 204.52 49.4628 205.324 50.7261C206.335 52.314 207.975 53.0337 209.57 53.0337V45.0337ZM212.401 47.146C212.401 46.5537 212.573 45.1363 212.954 42.9235C213.316 40.8224 213.812 38.2962 214.344 35.6638C215.388 30.5033 216.607 24.7944 217.076 21.6729L209.165 20.4833C208.735 23.3395 207.594 28.6869 206.503 34.0772C205.968 36.7202 205.453 39.3429 205.07 41.5664C204.707 43.6781 204.401 45.7607 204.401 47.146H212.401ZM217.071 21.7066C217.461 19.2542 216.074 17.5417 215.036 16.7006C214.042 15.8954 212.875 15.4246 211.998 15.1393C210.204 14.556 208.157 14.2915 206.918 14.2915V22.2915C207.07 22.2915 207.471 22.3158 208.016 22.401C208.548 22.4839 209.084 22.6042 209.524 22.7471C210.028 22.9113 210.12 23.0136 210 22.9162C209.918 22.8502 209.656 22.6215 209.436 22.1818C209.188 21.6878 209.071 21.0738 209.17 20.4496L217.071 21.7066ZM206.918 14.2915C204.014 14.2915 202.616 16.558 202.135 17.5544C201.582 18.7027 201.283 20.0417 201.09 21.1568L208.971 22.5275C209.047 22.0902 209.124 21.7375 209.198 21.4623C209.235 21.3269 209.268 21.2227 209.295 21.1457C209.309 21.1078 209.32 21.0793 209.328 21.059C209.332 21.0491 209.336 21.0416 209.338 21.0364C209.339 21.0339 209.34 21.032 209.34 21.0307C209.341 21.0294 209.341 21.0287 209.341 21.0287C209.341 21.0287 209.341 21.0294 209.34 21.0308C209.34 21.0321 209.339 21.0341 209.337 21.0368C209.334 21.0422 209.33 21.0505 209.324 21.0614C209.311 21.0829 209.29 21.1177 209.259 21.1624C209.199 21.2482 209.083 21.3969 208.895 21.5619C208.703 21.7308 208.429 21.921 208.07 22.0666C207.702 22.2154 207.309 22.2915 206.918 22.2915V14.2915ZM201.097 21.1175C200.74 23.0507 200.121 27.0258 199.537 29.9L207.377 31.4925C207.962 28.6138 208.691 24.0494 208.964 22.5668L201.097 21.1175ZM203.457 30.6962C206.318 27.9005 206.317 27.8994 206.316 27.8982C206.315 27.8978 206.314 27.8967 206.314 27.8959C206.312 27.8943 206.31 27.8927 206.309 27.891C206.306 27.8877 206.302 27.8843 206.299 27.8808C206.292 27.8737 206.284 27.8661 206.276 27.858C206.26 27.8418 206.241 27.8237 206.221 27.8037C206.18 27.7638 206.13 27.7164 206.071 27.6627C205.954 27.5554 205.801 27.4218 205.614 27.2712C205.242 26.9717 204.722 26.595 204.063 26.2236C202.751 25.4833 200.807 24.7187 198.379 24.7187V32.7187C199.097 32.7187 199.692 32.9428 200.132 33.1914C200.35 33.3143 200.51 33.432 200.598 33.5033C200.641 33.5381 200.664 33.559 200.665 33.5599C200.666 33.5602 200.66 33.5553 200.649 33.5444C200.643 33.5389 200.636 33.5318 200.627 33.5231C200.623 33.5188 200.618 33.514 200.613 33.5088C200.611 33.5063 200.608 33.5036 200.605 33.5007C200.604 33.4993 200.602 33.4979 200.601 33.4964C200.6 33.4957 200.599 33.4946 200.599 33.4942C200.598 33.4931 200.597 33.492 203.457 30.6962ZM198.379 24.7187C192.451 24.7187 188.628 28.7772 186.509 32.7086C184.378 36.663 183.412 41.3821 183.412 44.9437H191.412C191.412 42.5726 192.109 39.1792 193.551 36.5043C195.005 33.8063 196.666 32.7187 198.379 32.7187V24.7187ZM183.412 44.9437C183.412 47.8463 184.313 51.0774 186.353 53.6701C188.483 56.3777 191.766 58.2472 195.996 58.2472V50.2472C194.339 50.2472 193.33 49.5999 192.64 48.7232C191.86 47.7315 191.412 46.3108 191.412 44.9437H183.412ZM195.996 58.2472C199.067 58.2472 201.425 56.8757 203.04 55.3686C204.614 53.9003 205.625 52.1866 206.198 51.0121L199.008 47.5047C198.682 48.1729 198.189 48.9536 197.582 49.5191C197.018 50.0457 196.521 50.2472 195.996 50.2472V58.2472ZM202.603 53.2584H202.783V45.2584H202.603V53.2584ZM198.595 47.3628C198.748 45.0313 199.435 41.7831 200.381 39.1705C200.858 37.8536 201.325 36.9118 201.69 36.3786C201.873 36.111 201.93 36.0963 201.82 36.182C201.706 36.2703 201.196 36.6289 200.356 36.6289V28.6289C198.854 28.6289 197.677 29.2684 196.905 29.8696C196.136 30.4683 195.541 31.1987 195.088 31.8595C194.182 33.1831 193.444 34.8312 192.859 36.447C191.681 39.6996 190.818 43.6875 190.612 46.8393L198.595 47.3628ZM200.356 36.6289C199.51 36.6289 198.633 36.3108 197.953 35.6769C197.357 35.1215 197.124 34.5237 197.035 34.2317C196.941 33.9227 196.929 33.6959 196.926 33.6091C196.924 33.5078 196.931 33.4432 196.936 33.4115L204.855 34.5429C204.94 33.9478 205.008 32.9518 204.688 31.9024C204.521 31.352 204.17 30.5351 203.408 29.8252C202.562 29.0368 201.472 28.6289 200.356 28.6289V36.6289ZM196.898 33.8344C196.899 33.8136 196.897 33.8788 196.857 34.0514C196.818 34.2176 196.756 34.4264 196.667 34.6824C196.463 35.2716 196.274 35.6895 196.002 36.3848L203.452 39.3C203.584 38.9617 203.957 38.0762 204.225 37.3058C204.498 36.5193 204.849 35.3573 204.893 34.12L196.898 33.8344ZM196.205 39.7388C196.608 40.4876 197.198 41.2329 198.058 41.7879C198.918 42.3427 199.747 42.511 200.264 42.5756L201.257 34.6374C201.414 34.6571 201.884 34.7355 202.395 35.0655C202.907 35.3959 203.16 35.7816 203.249 35.946L196.205 39.7388ZM196.766 38.4016C196.776 38.2035 196.798 38.2195 196.701 38.602C196.623 38.9106 196.501 39.3262 196.337 39.8258C196.01 40.824 195.554 42.0307 195.048 43.1832C194.529 44.3646 194.019 45.345 193.605 45.9684C193.39 46.292 193.3 46.3678 193.353 46.3183C193.386 46.288 193.537 46.1521 193.807 46.011C194.081 45.8686 194.59 45.6629 195.277 45.6629V53.6629C197.056 53.6629 198.275 52.6622 198.775 52.2011C199.388 51.636 199.886 50.9713 200.269 50.3952C201.05 49.2194 201.773 47.7644 202.372 46.4008C202.984 45.0083 203.531 43.5605 203.938 42.3213C204.283 41.2705 204.701 39.8658 204.755 38.8114L196.766 38.4016ZM195.277 45.6629C196.066 45.6629 196.811 45.9235 197.406 46.359C197.946 46.7549 198.238 47.2009 198.377 47.4551C198.625 47.907 198.646 48.2253 198.629 48.1081C198.603 47.9283 198.603 47.6464 198.603 47.101H190.603C190.603 47.3647 190.581 48.3637 190.712 49.2626C190.774 49.6847 190.919 50.4917 191.36 51.2976C191.846 52.1848 193.083 53.6629 195.277 53.6629V45.6629ZM225.813 20.2241L222.028 18.9294L220.766 22.6203L224.424 23.9751L225.813 20.2241ZM225.633 43.5504L225.497 39.5527L222.161 39.6664L221.676 42.9684L225.633 43.5504ZM220.959 47.1909L224.951 47.4404L224.952 47.4293L220.959 47.1909ZM224.375 33.1682L220.596 31.8571L220.57 31.9328L220.546 32.0096L224.375 33.1682ZM216.869 30.3367L220.535 31.9373L220.585 31.8219L220.628 31.7037L216.869 30.3367ZM221.408 31.5951C228.535 31.5951 232.24 26.8142 232.24 22.6961H224.24C224.24 22.3788 224.319 22.5748 223.995 22.8822C223.77 23.0948 223.094 23.5951 221.408 23.5951V31.5951ZM232.24 22.6961C232.24 20.6265 231.276 19.0524 230.053 18.0258C229.021 17.1586 227.828 16.7051 227.202 16.4732L224.424 23.9751C224.679 24.0695 224.832 24.1344 224.933 24.1843C225.035 24.2346 225.003 24.2309 224.91 24.1529C224.805 24.0648 224.614 23.8744 224.458 23.5628C224.294 23.237 224.24 22.9231 224.24 22.6961H232.24ZM229.598 21.5189C229.875 20.7069 230.131 19.5199 229.8 18.208C229.427 16.7324 228.473 15.7141 227.455 15.1187C226.559 14.5953 225.639 14.4047 225.011 14.3164C224.343 14.2225 223.664 14.2016 223.071 14.2016V22.2016C223.512 22.2016 223.766 22.2201 223.897 22.2385C224.069 22.2626 223.815 22.2574 223.419 22.0261C222.9 21.7229 222.28 21.1035 222.044 20.1673C221.944 19.7718 221.948 19.4464 221.968 19.2428C221.988 19.0447 222.027 18.933 222.028 18.9294L229.598 21.5189ZM223.071 14.2016C219.243 14.2016 216.819 16.4521 215.547 18.6079C214.371 20.6016 213.948 22.8229 213.948 24.2242H221.948C221.948 24.2396 221.956 24.0119 222.052 23.6388C222.144 23.285 222.278 22.943 222.438 22.6718C222.597 22.4024 222.726 22.2939 222.778 22.2592C222.793 22.2495 222.849 22.2016 223.071 22.2016V14.2016ZM213.948 24.2242C213.948 26.7617 215.137 28.7249 216.708 29.9535C218.146 31.0781 219.89 31.5951 221.408 31.5951V23.5951C221.481 23.5951 221.524 23.6013 221.542 23.6043C221.56 23.6075 221.569 23.6102 221.57 23.6107C221.572 23.6113 221.576 23.6127 221.584 23.617C221.592 23.6214 221.611 23.6319 221.637 23.6524C221.692 23.6954 221.784 23.7857 221.859 23.932C221.895 24.0029 221.919 24.0716 221.933 24.1311C221.947 24.1903 221.948 24.2243 221.948 24.2242H213.948ZM208.509 47.3707C208.509 50.4374 209.497 53.2741 211.791 55.2739C213.993 57.1927 216.833 57.8427 219.566 57.8427V49.8427C217.984 49.8427 217.296 49.459 217.048 49.243C216.893 49.1079 216.509 48.7086 216.509 47.3707H208.509ZM219.566 57.8427C223.246 57.8427 226.599 56.4361 229.042 54.5307C231.317 52.7573 233.588 49.8931 233.588 46.5168H225.588C225.588 46.3314 225.523 47.1303 224.123 48.2221C222.892 49.182 221.234 49.8427 219.566 49.8427V57.8427ZM233.588 46.5168C233.588 44.8072 233.012 43.2886 231.98 42.1099C231.017 41.0102 229.852 40.4242 228.959 40.1046C228.054 39.7807 227.21 39.6518 226.636 39.5963C226.337 39.5675 226.083 39.5558 225.891 39.5516C225.794 39.5495 225.712 39.5493 225.646 39.5498C225.613 39.55 225.584 39.5505 225.559 39.551C225.546 39.5513 225.535 39.5516 225.525 39.5519C225.52 39.552 225.515 39.5522 225.51 39.5523C225.508 39.5524 225.505 39.5525 225.503 39.5525C225.502 39.5526 225.501 39.5526 225.5 39.5526C225.499 39.5527 225.497 39.5527 225.633 43.5504C225.77 47.5481 225.768 47.5481 225.767 47.5482C225.766 47.5482 225.765 47.5483 225.764 47.5483C225.762 47.5483 225.76 47.5484 225.758 47.5485C225.754 47.5486 225.751 47.5487 225.748 47.5488C225.741 47.549 225.735 47.5491 225.73 47.5492C225.72 47.5494 225.714 47.5495 225.71 47.5495C225.701 47.5496 225.704 47.5495 225.716 47.5497C225.74 47.5502 225.794 47.5523 225.867 47.5593C226.034 47.5754 226.179 47.6066 226.263 47.6366C226.359 47.671 226.182 47.6328 225.961 47.38C225.67 47.0482 225.588 46.6757 225.588 46.5168H233.588ZM221.676 42.9684C221.651 43.1393 221.577 43.5085 221.441 43.9709C221.306 44.4294 221.137 44.8837 220.953 45.2592C220.753 45.6664 220.623 45.7984 220.644 45.7787C220.691 45.7329 221.129 45.3483 221.903 45.3483V53.3483C223.823 53.3483 225.272 52.4299 226.199 51.5358C227.098 50.6678 227.716 49.6368 228.134 48.7855C228.968 47.0864 229.43 45.2239 229.591 44.1324L221.676 42.9684ZM221.903 45.3483C223.65 45.3483 224.533 46.541 224.773 47.0201C225.012 47.4977 224.933 47.7281 224.951 47.4404L216.967 46.9414C216.895 48.092 217.019 49.401 217.617 50.5978C218.216 51.796 219.616 53.3483 221.903 53.3483V45.3483ZM224.952 47.4293C225.015 46.3781 225.499 44.1031 226.218 41.3373C226.902 38.7072 227.694 36.0105 228.203 34.3268L220.546 32.0096C220.022 33.7417 219.196 36.5507 218.475 39.3252C217.79 41.964 217.083 44.9924 216.966 46.9525L224.952 47.4293ZM228.154 34.4793C229.048 31.9025 227.761 29.8454 226.649 28.7962C225.638 27.8419 224.382 27.258 223.461 26.9025C221.613 26.1897 219.356 25.7524 218.083 25.7524V33.7524C218.013 33.7524 218.31 33.7642 218.928 33.8927C219.483 34.0081 220.081 34.1735 220.581 34.3664C221.16 34.5896 221.272 34.7219 221.158 34.6146C221.076 34.5373 220.793 34.2489 220.605 33.7134C220.39 33.1021 220.396 32.433 220.596 31.8571L228.154 34.4793ZM218.083 25.7524C217.662 25.7524 216.85 25.7841 215.97 26.1138C215.003 26.4763 213.712 27.3131 213.11 28.9697L220.628 31.7037C220.206 32.8659 219.296 33.4105 218.779 33.6045C218.54 33.6943 218.353 33.7263 218.259 33.7389C218.16 33.7521 218.097 33.7524 218.083 33.7524V25.7524ZM213.203 28.7361C212.389 30.6 211.239 34.1134 210.306 37.5538C209.404 40.8806 208.509 44.8308 208.509 47.3707H216.509C216.509 46.0454 217.098 43.0741 218.027 39.6479C218.926 36.3354 219.955 33.2644 220.535 31.9373L213.203 28.7361ZM227.628 35.3705L227.23 31.3903L227.132 31.4001L227.035 31.4147L227.628 35.3705ZM229.561 35.1008L233.368 36.3288L235.267 30.4422L229.119 31.1253L229.561 35.1008ZM242.865 42.6515L242.273 38.6954L239.354 39.1317L238.91 42.0497L242.865 42.6515ZM238.1 34.112L237.713 30.1308L235.024 30.3923L234.262 32.9853L238.1 34.112ZM247.179 33.5278V29.5278H247.144L247.109 29.5284L247.179 33.5278ZM246.82 30.112L245.396 33.8499L245.405 33.8536L245.415 33.8573L246.82 30.112ZM244.483 28.6737L241.076 30.7701L241.148 30.887L241.228 30.9987L244.483 28.6737ZM241.292 28.3591L241.05 24.3664L241.042 24.3669L241.292 28.3591ZM239.853 28.449L236.065 27.1649L234.15 32.8132L240.103 32.4412L239.853 28.449ZM240.752 25.7973L244.54 27.0814L244.563 27.0144L244.584 26.9467L240.752 25.7973ZM234.864 23.6399L233.188 20.0081L233.175 20.0143L233.161 20.0207L234.864 23.6399ZM231.628 29.3929L232.21 33.3503L234.461 33.0193L235.327 30.9159L231.628 29.3929ZM225.156 30.7412L223.195 27.2549L223.147 27.2824L223.098 27.3112L225.156 30.7412ZM228.026 39.3506C228.388 39.3145 228.808 39.2464 229.073 39.2052C229.392 39.1557 229.69 39.1111 230.003 39.0764L229.119 31.1253C228.623 31.1804 228.179 31.2481 227.847 31.2998C227.46 31.3597 227.318 31.3816 227.23 31.3903L228.026 39.3506ZM225.754 33.8728C224.404 38.0591 223.224 42.8158 223.224 45.7976H231.224C231.224 44.1951 232.022 40.5023 233.368 36.3288L225.754 33.8728ZM223.224 45.7976C223.224 49.1482 224.417 52.1861 226.701 54.3795C228.966 56.5547 232.009 57.618 235.224 57.618V49.618C233.765 49.618 232.808 49.1532 232.242 48.6093C231.694 48.0835 231.224 47.2112 231.224 45.7976H223.224ZM235.224 57.618C238.635 57.618 242.254 56.7392 245.147 55.003C248.019 53.2802 250.775 50.2838 250.775 46.0224H242.775C242.775 46.4351 242.542 47.2366 241.031 48.1431C239.543 49.0361 237.386 49.618 235.224 49.618V57.618ZM250.775 46.0224C250.775 44.3539 250.352 42.7779 249.393 41.4664C248.445 40.1704 247.215 39.4609 246.162 39.0858C245.137 38.7205 244.187 38.6349 243.552 38.6228C243.221 38.6164 242.939 38.6295 242.725 38.646C242.617 38.6543 242.524 38.6637 242.449 38.6724C242.411 38.6768 242.377 38.681 242.348 38.6849C242.333 38.6869 242.32 38.6887 242.307 38.6905C242.301 38.6914 242.295 38.6922 242.29 38.6931C242.287 38.6935 242.284 38.6939 242.281 38.6943C242.28 38.6945 242.278 38.6948 242.277 38.6949C242.275 38.6952 242.273 38.6954 242.865 42.6515C243.456 46.6076 243.454 46.6079 243.452 46.6082C243.451 46.6083 243.449 46.6085 243.448 46.6087C243.446 46.6091 243.443 46.6094 243.441 46.6098C243.436 46.6105 243.432 46.6111 243.427 46.6117C243.419 46.6129 243.411 46.614 243.404 46.615C243.389 46.6169 243.377 46.6184 243.368 46.6194C243.35 46.6215 243.341 46.6222 243.34 46.6223C243.34 46.6223 243.363 46.6206 243.399 46.6213C243.497 46.6232 243.525 46.6388 243.477 46.6217C243.402 46.595 243.149 46.481 242.935 46.1878C242.709 45.8792 242.775 45.7133 242.775 46.0224H250.775ZM238.91 42.0497C238.91 42.0495 238.897 42.1257 238.848 42.2765C238.801 42.4213 238.731 42.6023 238.635 42.8074C238.439 43.2255 238.172 43.6635 237.861 44.0436C237.168 44.8931 236.72 44.9438 236.662 44.9438V52.9438C240.11 52.9438 242.606 50.882 244.059 49.1023C245.508 47.3267 246.537 45.105 246.819 43.2533L238.91 42.0497ZM236.662 44.9438C237.391 44.9438 238.265 45.2735 238.853 46.025C239.347 46.6574 239.314 47.173 239.314 47.0561H231.314C231.314 48.2426 231.573 49.702 232.55 50.9524C233.621 52.3219 235.169 52.9438 236.662 52.9438V44.9438ZM239.314 47.0561C239.314 46.0729 239.561 44.4311 240.067 42.218C240.557 40.0779 241.227 37.6632 241.938 35.2388L234.262 32.9853C233.536 35.4598 232.813 38.0565 232.269 40.4333C231.741 42.7371 231.314 45.1179 231.314 47.0561H239.314ZM238.488 38.0933C241.666 37.7843 244.832 37.5695 247.249 37.5271L247.109 29.5284C244.402 29.5759 241.007 29.8106 237.713 30.1308L238.488 38.0933ZM247.179 37.5278C248.023 37.5278 249.464 37.3834 250.684 36.3046C252.054 35.0921 252.213 33.5544 252.213 32.8536H244.213C244.213 32.4674 244.304 31.2668 245.383 30.3127C245.855 29.8953 246.332 29.7008 246.649 29.6126C246.953 29.5282 247.155 29.5278 247.179 29.5278V37.5278ZM252.213 32.8536C252.213 32.3425 252.113 31.9371 252.091 31.8478C252.051 31.6815 252.008 31.5377 251.975 31.438C251.91 31.2342 251.834 31.0319 251.765 30.8588C251.625 30.5038 251.447 30.0974 251.26 29.7075C251.08 29.3293 250.851 28.8827 250.606 28.4795C250.488 28.286 250.313 28.0133 250.09 27.7389C249.979 27.6017 249.805 27.3995 249.57 27.1888C249.375 27.0125 248.917 26.6263 248.224 26.3666L245.415 33.8573C245.067 33.7266 244.802 33.5699 244.627 33.4529C244.448 33.3329 244.312 33.2189 244.219 33.1352C244.039 32.9737 243.924 32.8358 243.875 32.7759C243.778 32.6562 243.743 32.5903 243.772 32.6391C243.822 32.7205 243.92 32.9003 244.042 33.1569C244.159 33.4018 244.262 33.6388 244.326 33.8021C244.36 33.8881 244.368 33.9137 244.36 33.8897C244.357 33.88 244.336 33.8142 244.311 33.7119C244.299 33.6597 244.279 33.5691 244.26 33.4523C244.244 33.3515 244.213 33.1345 244.213 32.8536H252.213ZM248.244 26.374C248.057 26.3029 247.897 26.2372 247.759 26.1753C247.62 26.1128 247.523 26.0628 247.461 26.0269C247.396 25.9896 247.397 25.984 247.438 26.0181C247.479 26.051 247.6 26.156 247.738 26.3488L241.228 30.9987C241.927 31.9776 242.83 32.592 243.471 32.9611C244.148 33.3505 244.844 33.6399 245.396 33.8499L248.244 26.374ZM247.889 26.5773C247.125 25.3358 245.997 24.791 245.258 24.555C244.54 24.3258 243.863 24.2783 243.427 24.2654C242.619 24.2414 241.559 24.3356 241.05 24.3665L241.534 32.3518C241.738 32.3394 241.938 32.3256 242.115 32.3134C242.298 32.3008 242.455 32.29 242.604 32.2811C242.915 32.2625 243.09 32.2589 243.19 32.2619C243.321 32.2658 243.142 32.2773 242.824 32.1759C242.485 32.0677 241.66 31.7195 241.076 30.7701L247.889 26.5773ZM241.042 24.3669L239.604 24.4568L240.103 32.4412L241.541 32.3513L241.042 24.3669ZM243.642 29.7332L244.54 27.0814L236.964 24.5131L236.065 27.1649L243.642 29.7332ZM244.584 26.9467C245.14 25.0916 244.207 23.7013 244.009 23.4144C243.692 22.9569 243.345 22.648 243.171 22.501C242.788 22.1769 242.375 21.9183 242.071 21.741C241.418 21.3591 240.611 20.9736 239.815 20.6469C239.022 20.3217 238.092 19.9947 237.192 19.7879C236.746 19.6854 236.205 19.5882 235.634 19.5632C235.15 19.542 234.191 19.5455 233.188 20.0081L236.541 27.2718C236.149 27.4523 235.822 27.5132 235.644 27.5365C235.458 27.5608 235.33 27.5575 235.283 27.5555C235.201 27.5519 235.229 27.5454 235.4 27.5847C235.735 27.6616 236.23 27.8234 236.78 28.0488C237.326 28.2726 237.781 28.4995 238.036 28.6485C238.187 28.7367 238.139 28.7231 238.001 28.6059C237.949 28.5623 237.694 28.3472 237.434 27.9718C237.299 27.7775 237.075 27.416 236.922 26.9076C236.762 26.3792 236.645 25.5692 236.921 24.6479L244.584 26.9467ZM233.161 20.0207C232.042 20.5475 231.334 21.4388 231.027 21.8427C230.622 22.3764 230.253 22.9842 229.927 23.5775C229.268 24.7757 228.585 26.2784 227.93 27.8699L235.327 30.9159C235.93 29.451 236.483 28.2571 236.937 27.4328C237.167 27.0149 237.323 26.7799 237.4 26.6787C237.437 26.6302 237.413 26.6691 237.326 26.7522C237.258 26.8176 237.005 27.0534 236.568 27.2592L233.161 20.0207ZM231.046 25.4354C229.489 25.6644 227.973 25.9121 226.728 26.1623C226.108 26.2868 225.509 26.4213 224.983 26.5657C224.554 26.6833 223.837 26.8941 223.195 27.2549L227.117 34.2275C226.836 34.3861 226.725 34.3833 227.1 34.2804C227.377 34.2043 227.778 34.1113 228.304 34.0055C229.351 33.795 230.711 33.5707 232.21 33.3503L231.046 25.4354ZM223.098 27.3112C221.687 28.1584 221.2 29.4858 221.034 30.2022C220.859 30.9567 220.882 31.6508 220.931 32.1372C221.034 33.1369 221.348 34.1432 221.733 35.0007C222.116 35.8502 222.704 36.8557 223.555 37.691C224.354 38.4756 225.986 39.6616 228.222 39.3262L227.035 31.4147C228.372 31.2142 229.133 31.9564 229.16 31.9825C229.238 32.0594 229.152 31.9918 229.029 31.7178C228.909 31.4516 228.886 31.2838 228.89 31.3227C228.89 31.3288 228.923 31.5959 228.827 32.0099C228.74 32.3856 228.402 33.4588 227.214 34.1712L223.098 27.3112ZM244.725 42.5616L240.732 42.3196L240.73 42.3514L240.729 42.3832L244.725 42.5616ZM266.837 37.9773L270.83 38.2268L270.833 38.1782L270.834 38.1295L266.837 37.9773ZM255.871 29.3929L252.293 31.1817L254.212 35.0193L257.906 32.8366L255.871 29.3929ZM254.073 28.2243L255.394 24.4489L254.385 24.0955L253.334 24.2932L254.073 28.2243ZM252.051 43.91L256.029 44.3196L256.038 44.2397L256.043 44.1595L252.051 43.91ZM252.5 41.3481L255.623 38.8493L250.964 33.0246L248.69 40.129L252.5 41.3481ZM253.624 41.7077L257.418 42.9726L257.485 42.7728L257.53 42.5671L253.624 41.7077ZM259.781 36.539L263.762 36.9293L263.767 36.882L263.77 36.8345L259.781 36.539ZM240.729 42.3832C240.585 45.608 241.368 49.3778 243.588 52.4537C245.925 55.6907 249.679 57.8877 254.702 57.8877V49.8877C252.265 49.8877 250.917 48.9385 250.074 47.771C249.115 46.4423 248.64 44.5491 248.721 42.74L240.729 42.3832ZM254.702 57.8877C261.216 57.8877 265.293 53.875 267.573 49.7577C269.799 45.7364 270.648 41.1311 270.83 38.2268L262.845 37.7278C262.712 39.8573 262.055 43.2072 260.574 45.8826C259.146 48.462 257.313 49.8877 254.702 49.8877V57.8877ZM270.834 38.1295C270.932 35.5714 270.741 32.1372 268.734 29.3085C266.528 26.1997 262.894 24.8086 258.343 24.8086V32.8086C261.297 32.8086 262 33.6422 262.21 33.938C262.619 34.5138 262.923 35.664 262.84 37.825L270.834 38.1295ZM258.343 24.8086C257.079 24.8086 256.024 25.0566 255.271 25.3109C254.892 25.439 254.578 25.5723 254.339 25.6853C254.219 25.742 254.117 25.7942 254.033 25.8389C253.991 25.8613 253.953 25.8819 253.921 25.9004C253.904 25.9096 253.889 25.9183 253.875 25.9265C253.868 25.9305 253.861 25.9345 253.854 25.9383C253.851 25.9401 253.848 25.942 253.845 25.9438C253.843 25.9447 253.842 25.9456 253.84 25.9465C253.84 25.947 253.838 25.9476 253.838 25.9478C253.837 25.9485 253.836 25.9491 255.871 29.3929C257.906 32.8366 257.905 32.8372 257.904 32.8379C257.903 32.8381 257.902 32.8387 257.901 32.8391C257.9 32.84 257.898 32.8408 257.897 32.8417C257.894 32.8434 257.891 32.845 257.889 32.8466C257.883 32.8498 257.878 32.8529 257.873 32.8559C257.862 32.8618 257.853 32.8672 257.844 32.8722C257.826 32.8821 257.812 32.8902 257.8 32.8966C257.776 32.9094 257.762 32.9159 257.758 32.9178C257.751 32.9213 257.777 32.9085 257.83 32.8905C257.942 32.8527 258.124 32.8086 258.343 32.8086V24.8086ZM259.449 27.604C258.871 26.4485 257.956 25.755 257.372 25.3834C256.725 24.9715 256.029 24.671 255.394 24.4489L252.752 31.9997C253.016 32.0922 253.107 32.1513 253.077 32.1327C253.058 32.1202 252.961 32.0577 252.83 31.9301C252.702 31.8053 252.483 31.5621 252.293 31.1817L259.449 27.604ZM253.334 24.2932C249.391 25.0349 246.353 28.3333 244.448 31.3553C242.431 34.5544 240.959 38.5668 240.732 42.3196L248.717 42.8036C248.849 40.6238 249.782 37.8945 251.215 35.6215C252.76 33.1715 254.216 32.2676 254.813 32.1553L253.334 24.2932ZM256.043 44.1595C256.072 43.6963 256.146 43.2653 256.216 42.9473C256.25 42.7924 256.281 42.6748 256.299 42.6058C256.309 42.5716 256.315 42.5502 256.317 42.5431C256.318 42.5396 256.318 42.5397 256.317 42.5436C256.317 42.5456 256.316 42.5485 256.314 42.5525C256.314 42.5544 256.313 42.5566 256.312 42.5591C256.312 42.5603 256.311 42.5616 256.311 42.563C256.311 42.5636 256.311 42.5643 256.31 42.565C256.31 42.5654 256.31 42.5659 256.31 42.5661C256.31 42.5667 256.31 42.5672 252.5 41.3481C248.69 40.129 248.69 40.1296 248.69 40.1301C248.69 40.1303 248.69 40.1309 248.69 40.1313C248.689 40.1321 248.689 40.1329 248.689 40.1337C248.688 40.1353 248.688 40.137 248.687 40.1388C248.686 40.1424 248.685 40.1462 248.684 40.1503C248.681 40.1586 248.678 40.168 248.675 40.1786C248.668 40.1997 248.66 40.2253 248.651 40.2553C248.633 40.3153 248.611 40.3929 248.585 40.4865C248.534 40.6732 248.469 40.9263 248.402 41.2321C248.27 41.8355 248.119 42.6854 248.058 43.6605L256.043 44.1595ZM249.376 43.8469C250.006 44.6343 250.789 45.0128 250.965 45.1003C251.301 45.2672 251.636 45.3924 251.924 45.4822C252.189 45.5646 252.586 45.6707 253.036 45.718C253.225 45.7379 253.691 45.7792 254.256 45.6808C254.498 45.6388 256.653 45.2682 257.418 42.9726L249.829 40.4428C250.203 39.3216 250.968 38.6407 251.57 38.2849C252.125 37.9567 252.628 37.844 252.883 37.7995C253.39 37.7113 253.777 37.7519 253.873 37.762C254.136 37.7897 254.288 37.8395 254.301 37.8433C254.336 37.8544 254.409 37.8785 254.525 37.9358C254.583 37.9648 254.703 38.0274 254.855 38.1312C254.976 38.2136 255.299 38.4437 255.623 38.8493L249.376 43.8469ZM257.53 42.5671C257.718 41.7114 258.326 39.7045 259.122 37.9767C259.525 37.1023 259.882 36.5075 260.132 36.1954C260.255 36.0428 260.251 36.0861 260.095 36.1916C259.932 36.3028 259.445 36.5839 258.702 36.5839V28.5839C256.172 28.5839 254.557 30.3601 253.89 31.1916C253.051 32.2391 252.374 33.5039 251.856 34.6294C250.809 36.9017 250.023 39.4568 249.717 40.8482L257.53 42.5671ZM258.702 36.5839C258.298 36.5839 257.782 36.4897 257.263 36.2013C256.751 35.9172 256.412 35.5427 256.207 35.2324C255.862 34.7083 255.867 34.3257 255.885 34.5071C255.896 34.6114 255.9 34.821 255.879 35.1665C255.869 35.3279 255.856 35.4936 255.84 35.6747C255.826 35.8339 255.806 36.0582 255.792 36.2436L263.77 36.8345C263.791 36.5567 263.976 35.001 263.845 33.7058C263.779 33.05 263.596 31.9062 262.887 30.8301C262.008 29.4963 260.517 28.5839 258.702 28.5839V36.5839ZM255.8 36.1488C255.712 37.0443 255.236 39.9687 254.383 42.5849C253.95 43.9103 253.503 44.8952 253.116 45.4695C252.618 46.2066 252.862 45.3932 254.028 45.3932V53.3932C257.015 53.3932 258.859 51.2596 259.747 49.9447C260.744 48.4669 261.466 46.6681 261.988 45.0665C263.045 41.8287 263.625 38.3259 263.762 36.9293L255.8 36.1488ZM254.028 45.3932C254.318 45.3932 254.646 45.4486 254.975 45.584C255.301 45.7182 255.555 45.9006 255.738 46.0751C256.076 46.3983 256.132 46.6531 256.097 46.5457C256.069 46.4609 256.011 46.226 255.985 45.8087C255.96 45.404 255.97 44.9016 256.029 44.3196L248.072 43.5004C247.885 45.3126 247.927 47.3133 248.499 49.0496C249.058 50.7456 250.658 53.3932 254.028 53.3932V45.3932ZM275.297 37.4379L271.325 36.9706L270.997 39.7597L273.509 41.0157L275.297 37.4379ZM276.511 30.2019L280.477 30.7192L280.843 27.9153L278.322 26.6352L276.511 30.2019ZM268.646 36.9435L272.615 37.4397L272.619 37.4038L272.623 37.3678L268.646 36.9435ZM275.163 52.8989L276.612 56.6269L279.006 55.696L279.156 53.1318L275.163 52.8989ZM278.983 38.2469L282.982 38.1619L275.405 36.4581L278.983 38.2469ZM282.354 37.9773L286.34 38.3095L286.343 38.2701L286.346 38.2307L282.354 37.9773ZM284.916 30.6513L288.908 30.8933L288.909 30.8862L284.916 30.6513ZM282.489 28.4041L281.676 32.3206L281.689 32.3233L282.489 28.4041ZM278.174 29.7075L274.392 28.4035L274.381 28.4372L274.37 28.4711L278.174 29.7075ZM275.567 37.5728L273.778 41.1505L277.516 43.0194L279.22 39.2034L275.567 37.5728ZM279.27 37.9053C279.387 36.9141 279.597 35.7517 279.836 34.4696C280.063 33.2569 280.325 31.889 280.477 30.7192L272.545 29.6845C272.427 30.5822 272.218 31.6862 271.972 33.0016C271.739 34.2477 271.478 35.6696 271.325 36.9706L279.27 37.9053ZM276.511 30.2019C278.322 26.6352 278.321 26.635 278.321 26.6347C278.321 26.6346 278.32 26.6344 278.32 26.6342C278.319 26.6339 278.318 26.6335 278.318 26.6332C278.316 26.6324 278.314 26.6315 278.313 26.6306C278.309 26.6287 278.304 26.6264 278.299 26.6238C278.289 26.6185 278.275 26.6119 278.259 26.6039C278.227 26.588 278.184 26.5667 278.131 26.5409C278.025 26.4895 277.879 26.4193 277.699 26.3368C277.344 26.173 276.845 25.9535 276.273 25.7314C275.297 25.3524 273.504 24.7187 271.792 24.7187V32.7187C271.752 32.7187 271.896 32.72 272.267 32.8179C272.603 32.9068 272.988 33.0378 273.378 33.1891C273.761 33.3378 274.105 33.4891 274.353 33.6034C274.476 33.6599 274.572 33.7057 274.633 33.7353C274.663 33.7501 274.684 33.7607 274.696 33.7665C274.702 33.7694 274.705 33.7711 274.706 33.7714C274.706 33.7716 274.706 33.7715 274.705 33.771C274.705 33.7708 274.704 33.7704 274.703 33.77C274.703 33.7698 274.702 33.7696 274.702 33.7693C274.702 33.7692 274.701 33.769 274.701 33.7689C274.701 33.7687 274.7 33.7685 276.511 30.2019ZM271.792 24.7187C269.575 24.7187 268.034 25.9572 267.151 27.1476C266.342 28.2395 265.895 29.5058 265.62 30.5067C265.065 32.5266 264.835 34.9589 264.668 36.5193L272.623 37.3678C272.816 35.5573 272.99 33.8772 273.334 32.6274C273.508 31.9935 273.635 31.8356 273.578 31.912C273.448 32.087 272.84 32.7187 271.792 32.7187V24.7187ZM264.677 36.4474C264.161 40.5696 263.765 43.7044 263.499 45.9645C263.246 48.1136 263.073 49.7556 263.073 50.6966H271.073C271.073 50.3342 271.169 49.2346 271.444 46.9004C271.706 44.6773 272.096 41.5873 272.615 37.4397L264.677 36.4474ZM263.073 50.6966C263.073 51.8636 263.545 52.7267 263.879 53.1992C264.219 53.6812 264.597 54.0185 264.858 54.2271C265.381 54.6441 265.949 54.9474 266.385 55.1556C267.298 55.5919 268.397 55.9687 269.44 56.2586C270.498 56.5525 271.662 56.802 272.741 56.931C273.279 56.9953 273.865 57.0382 274.446 57.0243C274.962 57.0121 275.777 56.9517 276.612 56.6269L273.713 49.1709C274.143 49.0034 274.403 49.0231 274.255 49.0266C274.172 49.0286 273.987 49.0229 273.691 48.9876C273.101 48.9171 272.344 48.7621 271.581 48.5504C270.805 48.3347 270.184 48.1047 269.833 47.9371C269.637 47.8433 269.687 47.8453 269.849 47.9748C269.93 48.0395 270.168 48.2366 270.413 48.5832C270.651 48.9204 271.073 49.6532 271.073 50.6966H263.073ZM279.156 53.1318C279.434 48.3647 281.549 42.0599 282.561 40.0358L275.405 36.4581C273.99 39.288 271.521 46.6464 271.169 52.666L279.156 53.1318ZM274.984 38.332C275.012 39.6446 275.223 41.8639 276.531 43.848C278.038 46.1332 280.557 47.4605 283.792 47.4605V39.4605C283.278 39.4605 283.11 39.3652 283.129 39.3747C283.134 39.3772 283.155 39.3895 283.18 39.4122C283.204 39.4336 283.213 39.4483 283.21 39.4438C283.198 39.4258 283.136 39.3192 283.079 39.0673C283.022 38.8175 282.989 38.5105 282.982 38.1619L274.984 38.332ZM283.792 47.4605C286.925 47.4605 289.441 45.9533 291.089 44.0532C292.688 42.2099 293.68 39.77 293.68 37.3481H285.68C285.68 37.6678 285.503 38.284 285.046 38.8116C284.637 39.2823 284.21 39.4605 283.792 39.4605V47.4605ZM293.68 37.3481C293.68 35.9959 293.27 34.7091 292.433 33.6516C291.641 32.6506 290.663 32.1024 289.901 31.8016C289.141 31.5014 288.434 31.3824 287.949 31.3299C287.696 31.3024 287.475 31.2902 287.302 31.2848C287.215 31.282 287.14 31.281 287.081 31.2807C287.035 31.2804 286.965 31.2806 286.983 31.2806V39.2806C287.052 39.2806 287.06 39.2803 287.087 39.2833C287.133 39.2883 287.084 39.2901 286.964 39.2428C286.842 39.1947 286.488 39.0314 286.16 38.6161C285.786 38.1443 285.68 37.644 285.68 37.3481H293.68ZM286.983 31.2806C286.083 31.2806 285.399 31.5789 285.008 31.7998C284.612 32.0231 284.336 32.2676 284.181 32.418C283.878 32.7108 283.688 32.9878 283.616 33.0954C283.454 33.3365 283.341 33.5597 283.302 33.6365C283.213 33.8123 283.096 34.0656 283.042 34.1803C282.885 34.5129 282.731 34.8229 282.559 35.1003C282.372 35.3997 282.269 35.4885 282.292 35.4694C282.343 35.4271 282.715 35.1458 283.343 35.1458V43.1458C285.116 43.1458 286.494 42.3814 287.414 41.6144C288.307 40.8706 288.936 39.993 289.351 39.3261C289.78 38.6372 290.095 37.981 290.279 37.5887C290.352 37.4347 290.341 37.458 290.395 37.3433C290.427 37.2744 290.437 37.2546 290.436 37.2568C290.434 37.2598 290.422 37.2854 290.4 37.3247C290.381 37.3584 290.333 37.4435 290.259 37.5526C290.206 37.6319 290.033 37.8872 289.746 38.1654C289.598 38.3084 289.329 38.5474 288.94 38.767C288.555 38.9842 287.877 39.2806 286.983 39.2806V31.2806ZM283.343 35.1458C284.391 35.1458 285.271 35.6872 285.778 36.3638C286.218 36.95 286.396 37.6373 286.34 38.3095L278.368 37.6451C278.267 38.8566 278.602 40.1281 279.378 41.1638C280.223 42.2898 281.62 43.1458 283.343 43.1458V35.1458ZM286.346 38.2307C286.382 37.6565 286.674 36.8182 287.289 35.5088C287.534 34.9872 287.913 34.2168 288.177 33.605C288.414 33.0533 288.84 32.0235 288.908 30.8933L280.923 30.4093C280.946 30.0207 281.052 29.9235 280.829 30.442C280.631 30.9004 280.409 31.3379 280.048 32.1085C279.449 33.3834 278.505 35.4666 278.362 37.7238L286.346 38.2307ZM288.909 30.8862C288.966 29.916 288.835 28.3301 287.635 26.8698C286.498 25.4868 284.884 24.8105 283.288 24.4849L281.689 32.3233C282.295 32.4471 281.917 32.5124 281.455 31.9496C281.22 31.6644 281.066 31.3359 280.987 31.0203C280.913 30.7269 280.917 30.5048 280.922 30.4164L288.909 30.8862ZM283.301 24.4875C281.768 24.1692 280.047 24.0571 278.422 24.5611C276.61 25.1227 275.075 26.4237 274.392 28.4035L281.955 31.0114C281.865 31.2733 281.691 31.5683 281.422 31.8183C281.16 32.0603 280.914 32.1642 280.791 32.2021C280.681 32.2364 280.682 32.2148 280.849 32.2158C281.013 32.2168 281.283 32.2392 281.676 32.3206L283.301 24.4875ZM274.37 28.4711C273.64 30.715 272.929 33.6705 271.915 35.9422L279.22 39.2034C280.453 36.4412 281.539 32.2955 281.978 30.9438L274.37 28.4711ZM277.356 33.9951L277.086 33.8602L273.509 41.0157L273.778 41.1505L277.356 33.9951Z" fill="#131313"/>
</svg>
