<svg viewBox="0 0 68 62" fill="none" xmlns="http://www.w3.org/2000/svg">
  <path d="M65.8403 62C64.652 62 62.8628 61.9529 60.4728 61.8587C58.0827 61.7645 56.2801 61.7174 55.0648 61.7174C53.8765 61.7174 52.0941 61.7645 49.7176 61.8587C47.341 61.9529 45.5586 62 44.3704 62C43.7222 62 43.2226 61.7242 42.8715 61.1725C42.5204 60.6209 42.3449 60.0087 42.3449 59.3359C42.3449 58.5017 42.5745 57.8828 43.0336 57.4792C43.4927 57.0755 44.0193 56.8468 44.6134 56.793C45.2076 56.7391 45.8962 56.645 46.6794 56.5104C47.4626 56.3759 48.0702 56.174 48.5023 55.9049C49.3935 55.3398 49.8391 53.4562 49.8391 50.2539L49.7986 34.4714C49.7986 33.9062 49.7851 33.4891 49.7581 33.2201C49.407 33.1124 48.7319 33.0586 47.7326 33.0586H20.3889C19.3626 33.0586 18.674 33.1124 18.3229 33.2201C18.2959 33.4891 18.2824 33.9062 18.2824 34.4714L18.2419 49.4466C18.2419 53.2678 18.7415 55.4744 19.7407 56.0664C20.1728 56.3355 20.821 56.5104 21.6852 56.5911C22.5494 56.6719 23.3191 56.719 23.9942 56.7324C24.6694 56.7459 25.277 56.9477 25.8171 57.3379C26.3572 57.7281 26.6273 58.3403 26.6273 59.1745C26.6273 59.8741 26.4585 60.52 26.1209 61.112C25.7834 61.704 25.2905 62 24.6424 62C23.3731 62 21.4894 61.9529 18.9913 61.8587C16.4932 61.7645 14.6231 61.7174 13.3808 61.7174C12.2195 61.7174 10.4911 61.7645 8.19559 61.8587C5.90007 61.9529 4.18518 62 3.05092 62C2.42978 62 1.95042 61.7174 1.61284 61.1523C1.27526 60.5872 1.10647 59.9818 1.10647 59.3359C1.10647 58.5286 1.31577 57.9232 1.73437 57.5195C2.15296 57.1159 2.63907 56.8804 3.1927 56.8131C3.74633 56.7459 4.38772 56.645 5.11689 56.5104C5.84606 56.3759 6.41319 56.174 6.81828 55.9049C7.70948 55.286 8.15509 53.362 8.15509 50.1328L8.11458 47.832V15.0156C8.11458 14.9349 8.12133 14.5851 8.13483 13.9661C8.14833 13.3472 8.14833 12.8561 8.13483 12.4928C8.12133 12.1296 8.10107 11.6115 8.07407 10.9388C8.04706 10.2661 7.9998 9.70095 7.93228 9.24349C7.86477 8.78602 7.777 8.29492 7.66897 7.77018C7.56095 7.24544 7.41242 6.82161 7.22337 6.4987C7.03433 6.17578 6.81828 5.93359 6.57522 5.77214C6.17013 5.50304 5.56249 5.34158 4.75231 5.28776C3.94212 5.23394 3.22646 5.20703 2.60532 5.20703C1.98418 5.20703 1.43055 5.01866 0.944438 4.64193C0.458327 4.26519 0.215271 3.65972 0.215271 2.82552C0.215271 2.12587 0.377308 1.48003 0.701382 0.888021C1.02546 0.296007 1.51157 0 2.15972 0C3.402 0 5.27218 0.047092 7.77025 0.141276C10.2683 0.23546 12.1385 0.282552 13.3808 0.282552C14.515 0.282552 16.2232 0.23546 18.5052 0.141276C20.7872 0.047092 22.4954 0 23.6296 0C24.3048 0 24.8111 0.296007 25.1487 0.888021C25.4863 1.48003 25.6551 2.12587 25.6551 2.82552C25.6551 3.63281 25.4255 4.2181 24.9664 4.58138C24.5073 4.94466 23.9875 5.13976 23.4068 5.16667C22.8262 5.19358 22.1578 5.2474 21.4016 5.32812C20.6454 5.40885 20.0648 5.58377 19.6597 5.85286C18.7145 6.41797 18.2419 8.57075 18.2419 12.3112L18.2824 25.2279C18.2824 25.793 18.2959 26.2235 18.3229 26.5195C18.674 26.6003 19.2006 26.6406 19.9028 26.6406H48.2187C48.8939 26.6406 49.407 26.6003 49.7581 26.5195C49.7851 26.2235 49.7986 25.793 49.7986 25.2279L49.8391 12.3112C49.8391 8.57075 49.3665 6.41797 48.4213 5.85286C47.9352 5.55686 47.1452 5.38867 46.0515 5.34831C44.9577 5.30794 44.0665 5.13303 43.3779 4.82357C42.6892 4.51411 42.3449 3.84809 42.3449 2.82552C42.3449 2.12587 42.5137 1.48003 42.8513 0.888021C43.1888 0.296007 43.6952 0 44.3704 0C45.5586 0 47.341 0.047092 49.7176 0.141276C52.0941 0.23546 53.8765 0.282552 55.0648 0.282552C56.2261 0.282552 57.968 0.23546 60.2905 0.141276C62.613 0.047092 64.3549 0 65.5162 0C66.1913 0 66.6977 0.296007 67.0353 0.888021C67.3729 1.48003 67.5417 2.12587 67.5417 2.82552C67.5417 3.63281 67.3054 4.22483 66.8327 4.60156C66.3601 4.9783 65.82 5.17339 65.2124 5.18685C64.6047 5.2003 63.9093 5.24067 63.1261 5.30794C62.343 5.37522 61.7488 5.5434 61.3437 5.8125C60.3985 6.43142 59.9259 8.59766 59.9259 12.3112L59.9664 50.375C59.9664 53.5773 60.4255 55.4609 61.3437 56.026C61.7758 56.2951 62.397 56.4768 63.2072 56.571C64.0174 56.6651 64.7398 56.7257 65.3744 56.7526C66.0091 56.7795 66.5694 56.9881 67.0555 57.3783C67.5417 57.7684 67.7847 58.3672 67.7847 59.1745C67.7847 59.8741 67.6227 60.52 67.2986 61.112C66.9745 61.704 66.4884 62 65.8403 62Z" fill="#d3d3d3" />
</svg>
